<svg xmlns="http://www.w3.org/2000/svg" version="1.1" style="shape-rendering:geometricPrecision; text-rendering:geometricPrecision; image-rendering:optimizeQuality; fill-rule:evenodd; clip-rule:evenodd" xmlns:xlink="http://www.w3.org/1999/xlink" viewBox="0 0 512 512">
<g><path style="opacity:0.997" fill="#285680" d="M 158.5,78.5 C 158.5,196.5 158.5,314.5 158.5,432.5C 110.832,432.667 63.1655,432.5 15.5,432C 7.62389,430.944 2.29056,426.778 -0.5,419.5C -0.5,309.833 -0.5,200.167 -0.5,90.5C 1.64984,84.8522 5.64984,81.0188 11.5,79C 60.4989,78.5 109.499,78.3333 158.5,78.5 Z"/></g>
<g><path style="opacity:1" fill="#e5e6e7" d="M 158.5,78.5 C 223.167,78.5 287.833,78.5 352.5,78.5C 352.5,196.5 352.5,314.5 352.5,432.5C 287.833,432.5 223.167,432.5 158.5,432.5C 158.5,314.5 158.5,196.5 158.5,78.5 Z"/></g>
<g><path style="opacity:1" fill="#bf3a2b" d="M 352.5,78.5 C 401.501,78.3333 450.501,78.5 499.5,79C 502.547,79.5158 504.88,81.0158 506.5,83.5C 506.738,85.4044 507.738,86.7377 509.5,87.5C 510.167,88.5 510.833,89.5 511.5,90.5C 511.5,200.167 511.5,309.833 511.5,419.5C 508.709,426.778 503.376,430.944 495.5,432C 447.834,432.5 400.168,432.667 352.5,432.5C 352.5,314.5 352.5,196.5 352.5,78.5 Z"/></g>
<g><path style="opacity:0.976" fill="#8d4448" d="M 506.5,83.5 C 508.262,84.2623 509.262,85.5956 509.5,87.5C 507.738,86.7377 506.738,85.4044 506.5,83.5 Z"/></g>
</svg>
