<svg xmlns="http://www.w3.org/2000/svg" version="1.1" style="shape-rendering:geometricPrecision; text-rendering:geometricPrecision; image-rendering:optimizeQuality; fill-rule:evenodd; clip-rule:evenodd" xmlns:xlink="http://www.w3.org/1999/xlink" viewBox="0 0 512 512">
<g><path style="opacity:1" fill="#2a5780" d="M 246.5,78.5 C 246.5,90.1667 246.5,101.833 246.5,113.5C 246.5,125.5 246.5,137.5 246.5,149.5C 246.5,161.167 246.5,172.833 246.5,184.5C 246.5,196.167 246.5,207.833 246.5,219.5C 246.5,231.167 246.5,242.833 246.5,254.5C 164.167,254.5 81.8333,254.5 -0.5,254.5C -0.5,199.833 -0.5,145.167 -0.5,90.5C 1.64984,84.8522 5.64984,81.0188 11.5,79C 89.8326,78.5 168.166,78.3333 246.5,78.5 Z"/></g>
<g><path style="opacity:0.998" fill="#bf3a2b" d="M 246.5,78.5 C 330.834,78.3333 415.167,78.5 499.5,79C 505.35,81.0188 509.35,84.8522 511.5,90.5C 511.5,98.1667 511.5,105.833 511.5,113.5C 423.167,113.5 334.833,113.5 246.5,113.5C 246.5,101.833 246.5,90.1667 246.5,78.5 Z"/></g>
<g><path style="opacity:1" fill="#e3e8eb" d="M 16.5,87.5 C 18.873,89.5792 20.2064,92.2459 20.5,95.5C 23.8738,95.6744 27.2072,96.1744 30.5,97C 25.3824,100.437 23.049,105.27 23.5,111.5C 21.3932,110.363 19.2265,109.363 17,108.5C 14.7735,109.363 12.6068,110.363 10.5,111.5C 9.66767,108.518 9.50101,105.518 10,102.5C 8.22009,100.707 6.38676,99.0404 4.5,97.5C 11.35,97.4279 15.35,94.0946 16.5,87.5 Z"/></g>
<g><path style="opacity:1" fill="#e3e9eb" d="M 122.5,87.5 C 124.266,90.1879 125.933,93.0212 127.5,96C 136.032,95.4475 137.199,97.6141 131,102.5C 130.825,105.95 130.658,109.283 130.5,112.5C 128.222,110.777 125.722,109.444 123,108.5C 120.773,109.363 118.607,110.363 116.5,111.5C 115.668,108.518 115.501,105.518 116,102.5C 113.692,101.359 111.859,99.6922 110.5,97.5C 117.35,97.4279 121.35,94.0946 122.5,87.5 Z"/></g>
<g><path style="opacity:1" fill="#e3e9ec" d="M 228.5,87.5 C 230.266,90.1879 231.933,93.0212 233.5,96C 242.032,95.4475 243.199,97.6141 237,102.5C 236.821,105.553 236.321,108.553 235.5,111.5C 233.393,110.363 231.227,109.363 229,108.5C 226.773,109.363 224.607,110.363 222.5,111.5C 221.327,109.021 221.327,106.521 222.5,104C 220.339,102.004 218.339,99.8378 216.5,97.5C 223.35,97.4279 227.35,94.0946 228.5,87.5 Z"/></g>
<g><path style="opacity:1" fill="#e4e9ec" d="M 51.5,88.5 C 53.7306,90.0762 55.3972,92.2428 56.5,95C 59.3771,96.1268 62.3771,96.7935 65.5,97C 63.6667,98.8333 61.8333,100.667 60,102.5C 59.7852,105.856 59.7852,109.189 60,112.5C 57.4728,110.903 54.8061,109.57 52,108.5C 49.6827,109.826 47.3494,111.16 45,112.5C 44.7852,109.144 44.7852,105.811 45,102.5C 43.1667,100.667 41.3333,98.8333 39.5,97C 42.4715,96.2057 45.4715,95.539 48.5,95C 49.914,93.0065 50.914,90.8398 51.5,88.5 Z"/></g>
<g><path style="opacity:1" fill="#e2e8eb" d="M 87.5,87.5 C 89.2663,90.1879 90.933,93.0212 92.5,96C 95.2263,96.1816 97.8929,96.6816 100.5,97.5C 98.5171,98.982 96.6837,100.649 95,102.5C 95.1519,105.447 95.3185,108.447 95.5,111.5C 92.9373,110.8 90.4373,109.8 88,108.5C 85.1939,109.57 82.5272,110.903 80,112.5C 80.2148,109.189 80.2148,105.856 80,102.5C 78.1667,100.667 76.3333,98.8333 74.5,97C 77.4715,96.2057 80.4715,95.539 83.5,95C 84.9732,92.5524 86.3065,90.0524 87.5,87.5 Z"/></g>
<g><path style="opacity:1" fill="#e3e9ec" d="M 157.5,88.5 C 159.731,90.0762 161.397,92.2428 162.5,95C 165.377,96.1268 168.377,96.7935 171.5,97C 169.667,98.8333 167.833,100.667 166,102.5C 166,105.833 166,109.167 166,112.5C 163.473,110.903 160.806,109.57 158,108.5C 155.419,109.417 153.086,110.751 151,112.5C 151,109.167 151,105.833 151,102.5C 149.167,100.667 147.333,98.8333 145.5,97C 148.471,96.2057 151.471,95.539 154.5,95C 155.914,93.0065 156.914,90.8398 157.5,88.5 Z"/></g>
<g><path style="opacity:1" fill="#e2e8eb" d="M 193.5,87.5 C 195.266,90.1879 196.933,93.0212 198.5,96C 201.226,96.1816 203.893,96.6816 206.5,97.5C 204.517,98.982 202.684,100.649 201,102.5C 201.152,105.447 201.319,108.447 201.5,111.5C 198.937,110.8 196.437,109.8 194,108.5C 191.194,109.57 188.527,110.903 186,112.5C 186.369,109.21 186.369,105.877 186,102.5C 184.167,100.667 182.333,98.8333 180.5,97C 183.471,96.2057 186.471,95.539 189.5,95C 190.973,92.5524 192.307,90.0524 193.5,87.5 Z"/></g>
<g><path style="opacity:1" fill="#d9afab" d="M 246.5,113.5 C 334.833,113.5 423.167,113.5 511.5,113.5C 511.5,113.833 511.5,114.167 511.5,114.5C 423.5,114.5 335.5,114.5 247.5,114.5C 247.5,125.833 247.5,137.167 247.5,148.5C 335.5,148.5 423.5,148.5 511.5,148.5C 511.5,148.833 511.5,149.167 511.5,149.5C 423.5,149.5 335.5,149.5 247.5,149.5C 247.167,149.5 246.833,149.5 246.5,149.5C 246.5,137.5 246.5,125.5 246.5,113.5 Z"/></g>
<g><path style="opacity:1" fill="#e5e7e7" d="M 511.5,114.5 C 511.5,125.833 511.5,137.167 511.5,148.5C 423.5,148.5 335.5,148.5 247.5,148.5C 247.5,137.167 247.5,125.833 247.5,114.5C 335.5,114.5 423.5,114.5 511.5,114.5 Z"/></g>
<g><path style="opacity:1" fill="#e5ebed" d="M 36.5,121.5 C 38.5152,123.676 40.1819,126.176 41.5,129C 44.1667,129.667 46.8333,130.333 49.5,131C 47.316,133.016 45.316,135.183 43.5,137.5C 44.5617,140.103 44.7284,142.77 44,145.5C 41.6667,144.167 39.3333,142.833 37,141.5C 34.6667,142.833 32.3333,144.167 30,145.5C 29.2716,142.77 29.4383,140.103 30.5,137.5C 28.684,135.183 26.684,133.016 24.5,131C 27.0444,129.908 29.7111,129.241 32.5,129C 33.9732,126.552 35.3065,124.052 36.5,121.5 Z"/></g>
<g><path style="opacity:1" fill="#e4e9ec" d="M 71.5,121.5 C 73.5152,123.676 75.1819,126.176 76.5,129C 84.746,128.723 85.9126,130.89 80,135.5C 79.9748,138.917 79.8082,142.25 79.5,145.5C 77.0038,144.42 74.6705,143.086 72.5,141.5C 69.9206,142.706 67.4206,144.039 65,145.5C 64.6799,142.46 64.6799,139.46 65,136.5C 62.9824,134.65 61.1491,132.65 59.5,130.5C 66.4241,131.122 70.4241,128.122 71.5,121.5 Z"/></g>
<g><path style="opacity:1" fill="#e2e8eb" d="M 106.5,121.5 C 108.858,123.168 110.524,125.501 111.5,128.5C 114.5,129.333 117.5,130.167 120.5,131C 118.667,132.833 116.833,134.667 115,136.5C 115.499,139.518 115.332,142.518 114.5,145.5C 112.33,143.914 109.996,142.58 107.5,141.5C 105.33,143.086 102.996,144.42 100.5,145.5C 100.342,142.283 100.175,138.95 100,135.5C 98.3163,133.649 96.4829,131.982 94.5,130.5C 101.424,131.122 105.424,128.122 106.5,121.5 Z"/></g>
<g><path style="opacity:1" fill="#e4e9ec" d="M 142.5,121.5 C 144.515,123.676 146.182,126.176 147.5,129C 150.167,129.667 152.833,130.333 155.5,131C 153.316,133.016 151.316,135.183 149.5,137.5C 150.562,140.103 150.728,142.77 150,145.5C 147.667,144.167 145.333,142.833 143,141.5C 140.579,142.961 138.079,144.294 135.5,145.5C 135.167,145 134.833,144.5 134.5,144C 136.724,138.535 135.39,134.202 130.5,131C 132.962,129.784 135.629,129.118 138.5,129C 139.973,126.552 141.307,124.052 142.5,121.5 Z"/></g>
<g><path style="opacity:1" fill="#e4e9ec" d="M 177.5,121.5 C 179.515,123.676 181.182,126.176 182.5,129C 185.167,129.667 187.833,130.333 190.5,131C 189,132.5 187.5,134 186,135.5C 185.975,138.917 185.808,142.25 185.5,145.5C 183.004,144.42 180.67,143.086 178.5,141.5C 175.921,142.706 173.421,144.039 171,145.5C 170.272,142.77 170.438,140.103 171.5,137.5C 169.5,135.167 167.5,132.833 165.5,130.5C 172.424,131.122 176.424,128.122 177.5,121.5 Z"/></g>
<g><path style="opacity:1" fill="#e1e7ea" d="M 212.5,121.5 C 214.858,123.168 216.524,125.501 217.5,128.5C 226.016,128.757 227.183,131.424 221,136.5C 221.499,139.518 221.332,142.518 220.5,145.5C 218.167,144.167 215.833,142.833 213.5,141.5C 211.167,142.833 208.833,144.167 206.5,145.5C 205.979,142.222 205.813,138.889 206,135.5C 203.842,134.174 202.008,132.507 200.5,130.5C 207.424,131.122 211.424,128.122 212.5,121.5 Z"/></g>
<g><path style="opacity:1" fill="#bf3a2a" d="M 247.5,149.5 C 335.5,149.5 423.5,149.5 511.5,149.5C 511.5,160.833 511.5,172.167 511.5,183.5C 423.5,183.5 335.5,183.5 247.5,183.5C 247.5,172.167 247.5,160.833 247.5,149.5 Z"/></g>
<g><path style="opacity:1" fill="#e2e8eb" d="M 16.5,154.5 C 18.5152,156.676 20.1819,159.176 21.5,162C 24.1897,162.771 26.8564,163.604 29.5,164.5C 28.1851,166.316 26.6851,167.983 25,169.5C 24.7852,172.856 24.7852,176.189 25,179.5C 20.3797,174.889 15.5464,174.555 10.5,178.5C 9.66767,175.518 9.50101,172.518 10,169.5C 8.16667,167.667 6.33333,165.833 4.5,164C 7.5,163.167 10.5,162.333 13.5,161.5C 14.7878,159.261 15.7878,156.928 16.5,154.5 Z"/></g>
<g><path style="opacity:1" fill="#e2e8eb" d="M 87.5,154.5 C 89.1417,157.102 90.8084,159.769 92.5,162.5C 95.1092,163.23 97.7759,163.73 100.5,164C 98.6667,165.833 96.8333,167.667 95,169.5C 95.499,172.518 95.3323,175.518 94.5,178.5C 92.2777,177.222 89.9443,176.222 87.5,175.5C 84.9574,176.689 82.4574,178.022 80,179.5C 80.2148,176.189 80.2148,172.856 80,169.5C 78.1667,167.667 76.3333,165.833 74.5,164C 77.4245,163.012 80.4245,162.346 83.5,162C 84.9732,159.552 86.3065,157.052 87.5,154.5 Z"/></g>
<g><path style="opacity:1" fill="#e4eaec" d="M 122.5,154.5 C 124.646,156.775 126.312,159.442 127.5,162.5C 135.948,162.374 137.115,164.707 131,169.5C 130.821,172.553 130.321,175.553 129.5,178.5C 127.393,177.363 125.227,176.363 123,175.5C 120.773,176.363 118.607,177.363 116.5,178.5C 115.668,175.518 115.501,172.518 116,169.5C 114.167,167.667 112.333,165.833 110.5,164C 117.404,164.3 121.404,161.133 122.5,154.5 Z"/></g>
<g><path style="opacity:1" fill="#e6ebed" d="M 228.5,154.5 C 230.142,157.102 231.808,159.769 233.5,162.5C 236.177,163.074 238.843,163.741 241.5,164.5C 239.613,166.04 237.78,167.707 236,169.5C 236.499,172.518 236.332,175.518 235.5,178.5C 233.393,177.363 231.227,176.363 229,175.5C 226.773,176.363 224.607,177.363 222.5,178.5C 221.668,175.518 221.501,172.518 222,169.5C 220.316,167.649 218.483,165.982 216.5,164.5C 219.454,163.375 222.454,162.375 225.5,161.5C 226.788,159.261 227.788,156.928 228.5,154.5 Z"/></g>
<g><path style="opacity:1" fill="#e3e9ec" d="M 51.5,155.5 C 53.7306,157.076 55.3972,159.243 56.5,162C 59.4245,162.988 62.4245,163.654 65.5,164C 63.6667,165.833 61.8333,167.667 60,169.5C 60.2148,172.811 60.2148,176.144 60,179.5C 55,174.167 50,174.167 45,179.5C 44.7852,176.144 44.7852,172.811 45,169.5C 43.1667,167.667 41.3333,165.833 39.5,164C 42.4245,163.012 45.4245,162.346 48.5,162C 49.914,160.007 50.914,157.84 51.5,155.5 Z"/></g>
<g><path style="opacity:1" fill="#e3e9ec" d="M 157.5,155.5 C 159.731,157.076 161.397,159.243 162.5,162C 165.424,162.988 168.424,163.654 171.5,164C 169.667,165.833 167.833,167.667 166,169.5C 166,172.833 166,176.167 166,179.5C 163.543,178.022 161.043,176.689 158.5,175.5C 156.056,176.222 153.722,177.222 151.5,178.5C 151.101,175.578 150.934,172.578 151,169.5C 149.167,167.667 147.333,165.833 145.5,164C 148.5,163.167 151.5,162.333 154.5,161.5C 155.513,159.473 156.513,157.473 157.5,155.5 Z"/></g>
<g><path style="opacity:1" fill="#e2e8eb" d="M 193.5,154.5 C 195.142,157.102 196.808,159.769 198.5,162.5C 201.109,163.23 203.776,163.73 206.5,164C 204.667,165.833 202.833,167.667 201,169.5C 201.499,172.518 201.332,175.518 200.5,178.5C 198.278,177.222 195.944,176.222 193.5,175.5C 190.957,176.689 188.457,178.022 186,179.5C 186,176.167 186,172.833 186,169.5C 184.167,167.667 182.333,165.833 180.5,164C 183.424,163.012 186.424,162.346 189.5,162C 190.973,159.552 192.307,157.052 193.5,154.5 Z"/></g>
<g><path style="opacity:1" fill="#be4437" d="M 246.5,149.5 C 246.833,149.5 247.167,149.5 247.5,149.5C 247.5,160.833 247.5,172.167 247.5,183.5C 335.5,183.5 423.5,183.5 511.5,183.5C 511.5,183.833 511.5,184.167 511.5,184.5C 423.167,184.5 334.833,184.5 246.5,184.5C 246.5,172.833 246.5,161.167 246.5,149.5 Z"/></g>
<g><path style="opacity:1" fill="#e5e6e7" d="M 246.5,184.5 C 334.833,184.5 423.167,184.5 511.5,184.5C 511.5,196.167 511.5,207.833 511.5,219.5C 423.167,219.5 334.833,219.5 246.5,219.5C 246.5,207.833 246.5,196.167 246.5,184.5 Z"/></g>
<g><path style="opacity:1" fill="#e2e8eb" d="M 36.5,188.5 C 38.5152,190.676 40.1819,193.176 41.5,196C 44.2263,196.182 46.8929,196.682 49.5,197.5C 47.5,199.833 45.5,202.167 43.5,204.5C 44.8514,207.175 45.1847,209.841 44.5,212.5C 41.9048,211.287 39.4048,209.953 37,208.5C 34.37,210.406 31.5367,211.573 28.5,212C 29.2181,209.539 29.8847,207.039 30.5,204.5C 28.5,202.167 26.5,199.833 24.5,197.5C 27.1071,196.682 29.7737,196.182 32.5,196C 33.9732,193.552 35.3065,191.052 36.5,188.5 Z"/></g>
<g><path style="opacity:1" fill="#e1e7eb" d="M 142.5,188.5 C 144.515,190.676 146.182,193.176 147.5,196C 150.226,196.182 152.893,196.682 155.5,197.5C 153.684,199.817 151.684,201.984 149.5,204C 150.218,206.461 150.885,208.961 151.5,211.5C 151.167,211.833 150.833,212.167 150.5,212.5C 147.905,211.287 145.405,209.953 143,208.5C 140.595,209.953 138.095,211.287 135.5,212.5C 135.167,212 134.833,211.5 134.5,211C 135.517,208.213 135.684,205.38 135,202.5C 128.801,197.614 129.968,195.447 138.5,196C 139.973,193.552 141.307,191.052 142.5,188.5 Z"/></g>
<g><path style="opacity:1" fill="#e4e9ec" d="M 71.5,188.5 C 73.8802,190.237 75.5469,192.57 76.5,195.5C 84.879,195.287 86.0457,197.621 80,202.5C 79.8249,205.95 79.6582,209.283 79.5,212.5C 77.3295,210.914 74.9962,209.58 72.5,208.5C 69.9206,209.706 67.4206,211.039 65,212.5C 64.8724,209.486 64.8724,206.486 65,203.5C 62.9824,201.65 61.1491,199.65 59.5,197.5C 66.4241,198.122 70.4241,195.122 71.5,188.5 Z"/></g>
<g><path style="opacity:1" fill="#e3e9eb" d="M 106.5,188.5 C 108.858,190.168 110.524,192.501 111.5,195.5C 114.5,196.167 117.5,196.833 120.5,197.5C 119.141,199.692 117.308,201.359 115,202.5C 115.215,205.811 115.215,209.144 115,212.5C 112.579,211.039 110.079,209.706 107.5,208.5C 105.004,209.58 102.67,210.914 100.5,212.5C 100.167,211.667 99.8333,210.833 99.5,210C 100.332,207.522 100.499,205.022 100,202.5C 93.8655,197.741 95.0322,195.408 103.5,195.5C 104.788,193.261 105.788,190.928 106.5,188.5 Z"/></g>
<g><path style="opacity:1" fill="#e3e9ec" d="M 177.5,188.5 C 179.515,190.676 181.182,193.176 182.5,196C 191.032,195.447 192.199,197.614 186,202.5C 185.975,205.917 185.808,209.25 185.5,212.5C 183.167,211.167 180.833,209.833 178.5,208.5C 175.921,209.706 173.421,211.039 171,212.5C 170.272,209.77 170.438,207.103 171.5,204.5C 169.5,202.167 167.5,199.833 165.5,197.5C 172.396,198.262 176.396,195.262 177.5,188.5 Z"/></g>
<g><path style="opacity:1" fill="#e5eaed" d="M 212.5,188.5 C 214.858,190.168 216.524,192.501 217.5,195.5C 225.93,195.332 227.096,197.665 221,202.5C 221.215,205.811 221.215,209.144 221,212.5C 218.579,211.039 216.079,209.706 213.5,208.5C 211.004,209.58 208.67,210.914 206.5,212.5C 206.167,211.667 205.833,210.833 205.5,210C 207.667,204.837 206.334,200.837 201.5,198C 204.029,196.938 206.696,196.105 209.5,195.5C 210.788,193.261 211.788,190.928 212.5,188.5 Z"/></g>
<g><path style="opacity:1" fill="#bb6760" d="M 246.5,219.5 C 334.833,219.5 423.167,219.5 511.5,219.5C 511.5,219.833 511.5,220.167 511.5,220.5C 423.5,220.5 335.5,220.5 247.5,220.5C 247.5,231.833 247.5,243.167 247.5,254.5C 335.5,254.5 423.5,254.5 511.5,254.5C 511.5,254.833 511.5,255.167 511.5,255.5C 340.833,255.5 170.167,255.5 -0.5,255.5C -0.5,255.167 -0.5,254.833 -0.5,254.5C 81.8333,254.5 164.167,254.5 246.5,254.5C 246.5,242.833 246.5,231.167 246.5,219.5 Z"/></g>
<g><path style="opacity:1" fill="#bf3a2a" d="M 511.5,220.5 C 511.5,231.833 511.5,243.167 511.5,254.5C 423.5,254.5 335.5,254.5 247.5,254.5C 247.5,243.167 247.5,231.833 247.5,220.5C 335.5,220.5 423.5,220.5 511.5,220.5 Z"/></g>
<g><path style="opacity:1" fill="#e3e9ec" d="M 16.5,221.5 C 18.5152,223.676 20.1819,226.176 21.5,229C 24.2716,229.526 26.9382,230.359 29.5,231.5C 28.4717,233.361 26.9717,234.695 25,235.5C 24.7221,239.194 24.7221,242.861 25,246.5C 20.4802,241.662 15.6469,241.329 10.5,245.5C 9.66767,242.518 9.50101,239.518 10,236.5C 8.16667,234.667 6.33333,232.833 4.5,231C 7.5,230.167 10.5,229.333 13.5,228.5C 14.7878,226.261 15.7878,223.928 16.5,221.5 Z"/></g>
<g><path style="opacity:1" fill="#e2e8eb" d="M 87.5,221.5 C 89.0591,223.608 90.3924,225.941 91.5,228.5C 94.2979,229.969 97.2979,230.802 100.5,231C 98.6667,232.833 96.8333,234.667 95,236.5C 95.499,239.518 95.3323,242.518 94.5,245.5C 92.2777,244.222 89.9443,243.222 87.5,242.5C 84.7963,243.572 82.1296,244.572 79.5,245.5C 80.3287,242.531 80.4954,239.531 80,236.5C 78.1667,234.667 76.3333,232.833 74.5,231C 77.3771,229.873 80.3771,229.206 83.5,229C 84.9732,226.552 86.3065,224.052 87.5,221.5 Z"/></g>
<g><path style="opacity:1" fill="#e4eaec" d="M 122.5,221.5 C 124.515,223.676 126.182,226.176 127.5,229C 135.746,228.723 136.913,230.89 131,235.5C 130.824,238.882 130.324,242.215 129.5,245.5C 127.477,244.46 125.477,243.46 123.5,242.5C 121.056,243.222 118.722,244.222 116.5,245.5C 115.668,242.518 115.501,239.518 116,236.5C 114.167,234.667 112.333,232.833 110.5,231C 113.5,230.167 116.5,229.333 119.5,228.5C 120.788,226.261 121.788,223.928 122.5,221.5 Z"/></g>
<g><path style="opacity:1" fill="#e2e8eb" d="M 193.5,221.5 C 195.059,223.608 196.392,225.941 197.5,228.5C 200.298,229.969 203.298,230.802 206.5,231C 204.667,232.833 202.833,234.667 201,236.5C 201.499,239.518 201.332,242.518 200.5,245.5C 195.353,241.329 190.52,241.662 186,246.5C 186,243.167 186,239.833 186,236.5C 184.167,234.667 182.333,232.833 180.5,231C 183.377,229.873 186.377,229.206 189.5,229C 190.973,226.552 192.307,224.052 193.5,221.5 Z"/></g>
<g><path style="opacity:1" fill="#e6ebed" d="M 228.5,221.5 C 230.515,223.676 232.182,226.176 233.5,229C 236.044,230.092 238.711,230.759 241.5,231C 239.667,232.833 237.833,234.667 236,236.5C 236.499,239.518 236.332,242.518 235.5,245.5C 233.278,244.222 230.944,243.222 228.5,242.5C 226.523,243.46 224.523,244.46 222.5,245.5C 221.668,242.518 221.501,239.518 222,236.5C 220.167,234.667 218.333,232.833 216.5,231C 219.5,230.167 222.5,229.333 225.5,228.5C 226.312,226.055 227.312,223.722 228.5,221.5 Z"/></g>
<g><path style="opacity:1" fill="#e2e8eb" d="M 51.5,221.5 C 53.4883,223.601 55.155,226.101 56.5,229C 59.4715,229.794 62.4715,230.461 65.5,231C 63.6667,232.833 61.8333,234.667 60,236.5C 60.314,239.546 60.1474,242.546 59.5,245.5C 57.2777,244.222 54.9443,243.222 52.5,242.5C 50.0557,243.222 47.7223,244.222 45.5,245.5C 44.8526,242.546 44.686,239.546 45,236.5C 43.1667,234.667 41.3333,232.833 39.5,231C 42.4436,230.03 45.4436,229.196 48.5,228.5C 49.7878,226.261 50.7878,223.928 51.5,221.5 Z"/></g>
<g><path style="opacity:1" fill="#e3e9ec" d="M 157.5,222.5 C 159.731,224.076 161.397,226.243 162.5,229C 165.471,229.794 168.471,230.461 171.5,231C 169.667,232.833 167.833,234.667 166,236.5C 166,239.833 166,243.167 166,246.5C 161.48,241.662 156.647,241.329 151.5,245.5C 151.101,242.578 150.934,239.578 151,236.5C 149.167,234.667 147.333,232.833 145.5,231C 148.444,230.03 151.444,229.196 154.5,228.5C 155.513,226.473 156.513,224.473 157.5,222.5 Z"/></g>
<g><path style="opacity:1" fill="#e5e6e7" d="M -0.5,255.5 C 170.167,255.5 340.833,255.5 511.5,255.5C 511.5,267.167 511.5,278.833 511.5,290.5C 340.833,290.5 170.167,290.5 -0.5,290.5C -0.5,278.833 -0.5,267.167 -0.5,255.5 Z"/></g>
<g><path style="opacity:1" fill="#bf3a2a" d="M -0.5,290.5 C 170.167,290.5 340.833,290.5 511.5,290.5C 511.5,302.167 511.5,313.833 511.5,325.5C 340.833,325.5 170.167,325.5 -0.5,325.5C -0.5,313.833 -0.5,302.167 -0.5,290.5 Z"/></g>
<g><path style="opacity:1" fill="#e5e3e4" d="M -0.5,325.5 C 170.167,325.5 340.833,325.5 511.5,325.5C 511.5,337.5 511.5,349.5 511.5,361.5C 340.833,361.5 170.167,361.5 -0.5,361.5C -0.5,349.5 -0.5,337.5 -0.5,325.5 Z"/></g>
<g><path style="opacity:1" fill="#c03a2b" d="M -0.5,361.5 C 170.167,361.5 340.833,361.5 511.5,361.5C 511.5,373.167 511.5,384.833 511.5,396.5C 340.833,396.5 170.167,396.5 -0.5,396.5C -0.5,384.833 -0.5,373.167 -0.5,361.5 Z"/></g>
<g><path style="opacity:0.975" fill="#e5e7e7" d="M -0.5,396.5 C 170.167,396.5 340.833,396.5 511.5,396.5C 511.5,404.167 511.5,411.833 511.5,419.5C 508.709,426.778 503.376,430.944 495.5,432C 335.5,432.667 175.5,432.667 15.5,432C 7.62389,430.944 2.29056,426.778 -0.5,419.5C -0.5,411.833 -0.5,404.167 -0.5,396.5 Z"/></g>
</svg>
