<svg xmlns="http://www.w3.org/2000/svg" version="1.1" viewBox="0 0 1817 2048" style="shape-rendering:geometricPrecision; text-rendering:geometricPrecision; image-rendering:optimizeQuality; fill-rule:evenodd; clip-rule:evenodd" xmlns:xlink="http://www.w3.org/1999/xlink">
<g><path style="opacity:0.999" fill="#1f5b98" d="M 615.5,-0.5 C 616.5,-0.5 617.5,-0.5 618.5,-0.5C 618.5,682.167 618.5,1364.83 618.5,2047.5C 617.5,2047.5 616.5,2047.5 615.5,2047.5C 480.833,1979.83 346.167,1912.17 211.5,1844.5C 212.833,1297.17 212.833,749.833 211.5,202.5C 213.253,200.777 215.253,199.277 217.5,198C 350.671,132.581 483.338,66.4143 615.5,-0.5 Z"/></g>
<g><path style="opacity:1" fill="#2c71b7" d="M 618.5,-0.5 C 811.167,-0.5 1003.83,-0.5 1196.5,-0.5C 1196.5,682.167 1196.5,1364.83 1196.5,2047.5C 1003.83,2047.5 811.167,2047.5 618.5,2047.5C 618.5,1364.83 618.5,682.167 618.5,-0.5 Z"/></g>
<g><path style="opacity:1" fill="#5193ce" d="M 1196.5,-0.5 C 1197.5,-0.5 1198.5,-0.5 1199.5,-0.5C 1333.87,66.8399 1468.2,134.173 1602.5,201.5C 1602.17,749.334 1602.5,1297 1603.5,1844.5C 1603.83,1844.5 1604.17,1844.5 1604.5,1844.5C 1469.51,1911.83 1334.51,1979.49 1199.5,2047.5C 1198.5,2047.5 1197.5,2047.5 1196.5,2047.5C 1196.5,1364.83 1196.5,682.167 1196.5,-0.5 Z"/></g>
<g><path style="opacity:0.999" fill="#19476f" d="M 211.5,202.5 C 212.833,749.833 212.833,1297.17 211.5,1844.5C 141.26,1763.07 71.4265,1681.07 2,1598.5C 1.32924,1597.75 0.495904,1597.41 -0.5,1597.5C -0.5,1214.83 -0.5,832.167 -0.5,449.5C 70.1697,367.046 140.836,284.712 211.5,202.5 Z"/></g>
<g><path style="opacity:0.996" fill="#4a8ecb" d="M 1602.5,201.5 C 1603.49,201.328 1604.16,201.662 1604.5,202.5C 1603.5,749.666 1603.17,1297 1603.5,1844.5C 1602.5,1297 1602.17,749.334 1602.5,201.5 Z"/></g>
<g><path style="opacity:0.997" fill="#2d72b8" d="M 1604.5,202.5 C 1674.96,285.158 1745.63,367.491 1816.5,449.5C 1816.5,831.833 1816.5,1214.17 1816.5,1596.5C 1745.46,1678.87 1674.8,1761.53 1604.5,1844.5C 1604.17,1844.5 1603.83,1844.5 1603.5,1844.5C 1603.17,1297 1603.5,749.666 1604.5,202.5 Z"/></g>
</svg>
