<svg xmlns="http://www.w3.org/2000/svg" version="1.1" viewBox="0 0 241 209" style="shape-rendering:geometricPrecision; text-rendering:geometricPrecision; image-rendering:optimizeQuality; fill-rule:evenodd; clip-rule:evenodd" xmlns:xlink="http://www.w3.org/1999/xlink">
<g><path style="opacity:1" fill="#f6f5f5" d="M -0.5,-0.5 C 39.5,-0.5 79.5,-0.5 119.5,-0.5C 119.5,-0.166667 119.5,0.166667 119.5,0.5C 109.733,4.88292 100.066,9.54959 90.5,14.5C 89.5015,24.4778 89.1681,34.4778 89.5,44.5C 76.092,41.8146 62.7587,38.8146 49.5,35.5C 45.0686,37.2146 40.7353,39.2146 36.5,41.5C 35.1667,81.5 35.1667,121.5 36.5,161.5C 40.7353,163.785 45.0686,165.785 49.5,167.5C 61.4537,164.627 73.4537,161.96 85.5,159.5C 86.1499,159.804 86.8165,160.137 87.5,160.5C 88.1667,169.991 88.8334,179.325 89.5,188.5C 99.5,193.167 109.5,197.833 119.5,202.5C 129.393,198.566 139.393,193.899 149.5,188.5C 150.499,178.522 150.832,168.522 150.5,158.5C 150.833,158.5 151.167,158.5 151.5,158.5C 151.5,168.167 151.5,177.833 151.5,187.5C 152.5,187.5 153.5,187.5 154.5,187.5C 154.5,189.167 154.5,190.833 154.5,192.5C 156.5,192.5 158.5,192.5 160.5,192.5C 160.5,194.167 160.5,195.833 160.5,197.5C 158.5,197.5 156.5,197.5 154.5,197.5C 154.5,199.167 154.5,200.833 154.5,202.5C 153.127,202.343 151.793,202.51 150.5,203C 153.817,203.498 157.15,203.665 160.5,203.5C 160.5,205.167 160.5,206.833 160.5,208.5C 106.833,208.5 53.1667,208.5 -0.5,208.5C -0.5,138.833 -0.5,69.1667 -0.5,-0.5 Z"/></g>
<g><path style="opacity:1" fill="#f6f6f6" d="M 120.5,-0.5 C 160.5,-0.5 200.5,-0.5 240.5,-0.5C 240.5,69.1667 240.5,138.833 240.5,208.5C 213.833,208.5 187.167,208.5 160.5,208.5C 160.5,206.833 160.5,205.167 160.5,203.5C 157.15,203.665 153.817,203.498 150.5,203C 151.793,202.51 153.127,202.343 154.5,202.5C 154.5,200.833 154.5,199.167 154.5,197.5C 156.5,197.5 158.5,197.5 160.5,197.5C 160.5,195.833 160.5,194.167 160.5,192.5C 158.5,192.5 156.5,192.5 154.5,192.5C 154.5,190.833 154.5,189.167 154.5,187.5C 153.5,187.5 152.5,187.5 151.5,187.5C 151.5,177.833 151.5,168.167 151.5,158.5C 164.391,161.973 177.391,164.973 190.5,167.5C 194.931,165.785 199.265,163.785 203.5,161.5C 204.833,121.5 204.833,81.5 203.5,41.5C 199.931,39.5474 196.264,37.8808 192.5,36.5C 192.158,35.6618 191.492,35.3284 190.5,35.5C 177.159,38.5036 163.825,41.5036 150.5,44.5C 150.832,34.4778 150.499,24.4778 149.5,14.5C 139.615,9.72564 129.949,4.72564 120.5,-0.5 Z"/></g>
<g><path style="opacity:1" fill="#8c3022" d="M 119.5,0.5 C 119.5,17.1667 119.5,33.8333 119.5,50.5C 109.5,53.1667 99.5,55.8333 89.5,58.5C 89.5,53.8333 89.5,49.1667 89.5,44.5C 89.1681,34.4778 89.5015,24.4778 90.5,14.5C 100.066,9.54959 109.733,4.88292 119.5,0.5 Z"/></g>
<g><path style="opacity:1" fill="#de5143" d="M 119.5,-0.5 C 119.833,-0.5 120.167,-0.5 120.5,-0.5C 129.949,4.72564 139.615,9.72564 149.5,14.5C 150.499,24.4778 150.832,34.4778 150.5,44.5C 150.819,49.3633 150.486,54.03 149.5,58.5C 139.662,55.5392 129.662,52.8725 119.5,50.5C 119.5,33.8333 119.5,17.1667 119.5,0.5C 119.5,0.166667 119.5,-0.166667 119.5,-0.5 Z"/></g>
<g><path style="opacity:1" fill="#df5143" d="M 49.5,35.5 C 62.7587,38.8146 76.092,41.8146 89.5,44.5C 89.5,49.1667 89.5,53.8333 89.5,58.5C 99.3612,60.6056 109.361,62.6056 119.5,64.5C 119.984,68.8274 119.318,72.8274 117.5,76.5C 108.167,77.4998 98.8341,78.4998 89.5,79.5C 89.5,94.1667 89.5,108.833 89.5,123.5C 98.7986,124.792 108.132,125.792 117.5,126.5C 119.318,130.173 119.984,134.173 119.5,138.5C 110.719,140.617 101.719,142.284 92.5,143.5C 91.5,143.5 90.5,143.5 89.5,143.5C 89.5,148.5 89.5,153.5 89.5,158.5C 87.901,158.232 86.5676,158.566 85.5,159.5C 73.4537,161.96 61.4537,164.627 49.5,167.5C 49.5,123.5 49.5,79.5 49.5,35.5 Z"/></g>
<g><path style="opacity:1" fill="#d5584b" d="M 190.5,35.5 C 191.492,35.3284 192.158,35.6618 192.5,36.5C 191.833,79.8333 191.167,123.167 190.5,166.5C 190.5,122.833 190.5,79.1667 190.5,35.5 Z"/></g>
<g><path style="opacity:1" fill="#8f3427" d="M 49.5,35.5 C 49.5,79.5 49.5,123.5 49.5,167.5C 45.0686,165.785 40.7353,163.785 36.5,161.5C 35.1667,121.5 35.1667,81.5 36.5,41.5C 40.7353,39.2146 45.0686,37.2146 49.5,35.5 Z"/></g>
<g><path style="opacity:1" fill="#8d3124" d="M 190.5,35.5 C 190.5,79.1667 190.5,122.833 190.5,166.5C 190.5,166.833 190.5,167.167 190.5,167.5C 177.391,164.973 164.391,161.973 151.5,158.5C 151.167,158.5 150.833,158.5 150.5,158.5C 150.5,153.833 150.5,149.167 150.5,144.5C 140.609,142.533 130.609,140.533 120.5,138.5C 120.5,134.833 120.5,131.167 120.5,127.5C 121.791,127.737 122.791,127.404 123.5,126.5C 132.49,125.418 141.49,124.418 150.5,123.5C 150.5,108.833 150.5,94.1667 150.5,79.5C 141.812,78.664 133.145,77.664 124.5,76.5C 123.432,75.5655 122.099,75.2322 120.5,75.5C 120.5,71.8333 120.5,68.1667 120.5,64.5C 130.138,62.2393 139.805,60.2393 149.5,58.5C 150.486,54.03 150.819,49.3633 150.5,44.5C 163.825,41.5036 177.159,38.5036 190.5,35.5 Z"/></g>
<g><path style="opacity:1" fill="#e05345" d="M 192.5,36.5 C 196.264,37.8808 199.931,39.5474 203.5,41.5C 204.833,81.5 204.833,121.5 203.5,161.5C 199.265,163.785 194.931,165.785 190.5,167.5C 190.5,167.167 190.5,166.833 190.5,166.5C 191.167,123.167 191.833,79.8333 192.5,36.5 Z"/></g>
<g><path style="opacity:1" fill="#efaaa2" d="M 119.5,50.5 C 129.662,52.8725 139.662,55.5392 149.5,58.5C 139.805,60.2393 130.138,62.2393 120.5,64.5C 120.167,64.5 119.833,64.5 119.5,64.5C 109.361,62.6056 99.3612,60.6056 89.5,58.5C 99.5,55.8333 109.5,53.1667 119.5,50.5 Z"/></g>
<g><path style="opacity:1" fill="#b84235" d="M 119.5,64.5 C 119.833,64.5 120.167,64.5 120.5,64.5C 120.5,68.1667 120.5,71.8333 120.5,75.5C 122.099,75.2322 123.432,75.5655 124.5,76.5C 123.167,76.5 121.833,76.5 120.5,76.5C 120.5,93.1667 120.5,109.833 120.5,126.5C 121.5,126.5 122.5,126.5 123.5,126.5C 122.791,127.404 121.791,127.737 120.5,127.5C 120.5,131.167 120.5,134.833 120.5,138.5C 120.167,138.5 119.833,138.5 119.5,138.5C 119.984,134.173 119.318,130.173 117.5,126.5C 118.831,118.528 119.498,110.194 119.5,101.5C 119.498,92.8055 118.831,84.4722 117.5,76.5C 119.318,72.8274 119.984,68.8274 119.5,64.5 Z"/></g>
<g><path style="opacity:1" fill="#e05243" d="M 124.5,76.5 C 133.145,77.664 141.812,78.664 150.5,79.5C 150.5,94.1667 150.5,108.833 150.5,123.5C 141.49,124.418 132.49,125.418 123.5,126.5C 122.5,126.5 121.5,126.5 120.5,126.5C 120.5,109.833 120.5,93.1667 120.5,76.5C 121.833,76.5 123.167,76.5 124.5,76.5 Z"/></g>
<g><path style="opacity:1" fill="#8d3023" d="M 117.5,76.5 C 118.831,84.4722 119.498,92.8055 119.5,101.5C 119.498,110.194 118.831,118.528 117.5,126.5C 108.132,125.792 98.7986,124.792 89.5,123.5C 89.5,108.833 89.5,94.1667 89.5,79.5C 98.8341,78.4998 108.167,77.4998 117.5,76.5 Z"/></g>
<g><path style="opacity:1" fill="#5f1f18" d="M 119.5,138.5 C 119.833,138.5 120.167,138.5 120.5,138.5C 130.609,140.533 140.609,142.533 150.5,144.5C 140.504,146.832 130.504,149.166 120.5,151.5C 110.505,150.342 101.171,147.676 92.5,143.5C 101.719,142.284 110.719,140.617 119.5,138.5 Z"/></g>
<g><path style="opacity:1" fill="#8c3023" d="M 92.5,143.5 C 101.171,147.676 110.505,150.342 120.5,151.5C 119.515,168.423 119.182,185.423 119.5,202.5C 109.5,197.833 99.5,193.167 89.5,188.5C 89.5,178.5 89.5,168.5 89.5,158.5C 89.5,153.5 89.5,148.5 89.5,143.5C 90.5,143.5 91.5,143.5 92.5,143.5 Z"/></g>
<g><path style="opacity:1" fill="#de5143" d="M 150.5,144.5 C 150.5,149.167 150.5,153.833 150.5,158.5C 150.832,168.522 150.499,178.522 149.5,188.5C 139.393,193.899 129.393,198.566 119.5,202.5C 119.182,185.423 119.515,168.423 120.5,151.5C 130.504,149.166 140.504,146.832 150.5,144.5 Z"/></g>
<g><path style="opacity:1" fill="#d9c3c1" d="M 85.5,159.5 C 86.5676,158.566 87.901,158.232 89.5,158.5C 89.5,168.5 89.5,178.5 89.5,188.5C 88.8334,179.325 88.1667,169.991 87.5,160.5C 86.8165,160.137 86.1499,159.804 85.5,159.5 Z"/></g>
</svg>
