
<svg xmlns="http://www.w3.org/2000/svg" version="1.1" viewBox="0 0 2048 2048" style="shape-rendering:geometricPrecision; text-rendering:geometricPrecision; image-rendering:optimizeQuality; fill-rule:evenodd; clip-rule:evenodd" xmlns:xlink="http://www.w3.org/1999/xlink">
<g><path style="opacity:0.997" fill="#9d5025" d="M 1909.5,-0.5 C 1911.5,-0.5 1913.5,-0.5 1915.5,-0.5C 1915.5,368.167 1915.5,736.833 1915.5,1105.5C 1891.76,1104.76 1868.09,1103.1 1844.5,1100.5C 1843.67,777 1843.17,453.334 1843,129.5C 1832.73,125.798 1822.56,121.798 1812.5,117.5C 1810.97,115.755 1808.97,114.755 1806.5,114.5C 1804.03,114.233 1801.7,113.566 1799.5,112.5C 1797.97,110.755 1795.97,109.755 1793.5,109.5C 1791.42,109.029 1789.42,108.363 1787.5,107.5C 1785.97,105.755 1783.97,104.755 1781.5,104.5C 1775.92,103.639 1771.25,101.306 1767.5,97.5C 1767.17,76.8226 1767.5,56.1559 1768.5,35.5C 1815.08,23.6881 1861.75,12.1881 1908.5,1C 1909.06,0.617425 1909.39,0.117425 1909.5,-0.5 Z"/></g>
<g><path style="opacity:0.998" fill="#f58533" d="M 1915.5,-0.5 C 1916.5,-0.5 1917.5,-0.5 1918.5,-0.5C 1961.23,21.5332 2004.23,43.1999 2047.5,64.5C 2047.5,403.833 2047.5,743.167 2047.5,1082.5C 2009.35,1089.54 1971.18,1096.54 1933,1103.5C 1927.2,1104.5 1921.36,1105.16 1915.5,1105.5C 1915.5,736.833 1915.5,368.167 1915.5,-0.5 Z"/></g>
<g><path style="opacity:0.997" fill="#9d5025" d="M 1022.5,47.5 C 1023.5,459.764 1023.83,872.097 1023.5,1284.5C 1021.1,1284.55 1018.76,1284.22 1016.5,1283.5C 1015.67,1282.25 1014.33,1281.59 1012.5,1281.5C 1007.82,1280.83 1003.16,1280.16 998.5,1279.5C 992.727,1279.04 987.061,1278.04 981.5,1276.5C 981.082,1275.78 980.416,1275.28 979.5,1275C 973.844,1274.03 968.177,1273.19 962.5,1272.5C 950.03,1270.7 937.697,1268.37 925.5,1265.5C 925.082,1264.78 924.416,1264.28 923.5,1264C 920.854,1263.5 918.187,1263.34 915.5,1263.5C 911.217,1262.38 906.884,1261.38 902.5,1260.5C 896.765,1258.54 890.765,1257.2 884.5,1256.5C 884.167,1256.5 883.833,1256.5 883.5,1256.5C 882.848,1255.27 881.681,1254.61 880,1254.5C 874.253,1253.71 868.586,1252.71 863,1251.5C 862.832,1234.33 862.332,1217.33 861.5,1200.5C 861.833,994.666 861.5,788.999 860.5,583.5C 860.333,421.833 860.5,260.166 861,98.5C 914.811,81.3962 968.644,64.3962 1022.5,47.5 Z"/></g>
<g><path style="opacity:0.998" fill="#f48433" d="M 1024.5,47.5 C 1078.36,64.3962 1132.19,81.3962 1186,98.5C 1186.5,191.833 1186.67,285.166 1186.5,378.5C 1185.5,652.43 1185.17,926.43 1185.5,1200.5C 1185.14,1217.9 1184.14,1235.23 1182.5,1252.5C 1179.67,1252.58 1177.01,1253.25 1174.5,1254.5C 1169.16,1255.22 1163.83,1256.06 1158.5,1257C 1156.15,1257.24 1154.15,1258.07 1152.5,1259.5C 1151.5,1259.5 1150.5,1259.5 1149.5,1259.5C 1140.2,1260.74 1131.2,1262.74 1122.5,1265.5C 1117.8,1265.95 1113.13,1266.62 1108.5,1267.5C 1103.88,1267.76 1099.54,1268.76 1095.5,1270.5C 1091.5,1271.17 1087.5,1271.83 1083.5,1272.5C 1078.88,1272.76 1074.54,1273.76 1070.5,1275.5C 1066.78,1275.91 1063.11,1276.58 1059.5,1277.5C 1055.96,1277.75 1052.63,1278.42 1049.5,1279.5C 1046.85,1279.41 1044.51,1280.08 1042.5,1281.5C 1036.42,1282.19 1030.42,1283.19 1024.5,1284.5C 1024.5,872.167 1024.5,459.833 1024.5,47.5 Z"/></g>
<g><path style="opacity:0.996" fill="#db752f" d="M 1024.5,47.5 C 1024.5,459.833 1024.5,872.167 1024.5,1284.5C 1024.17,1284.5 1023.83,1284.5 1023.5,1284.5C 1023.83,872.097 1023.5,459.764 1022.5,47.5C 1023.17,46.1667 1023.83,46.1667 1024.5,47.5 Z"/></g>
<g><path style="opacity:0.997" fill="#9c4f24" d="M 1668.5,58.5 C 1668.5,424.833 1668.5,791.167 1668.5,1157.5C 1636.28,1153.95 1603.95,1150.62 1571.5,1147.5C 1571.5,1146.83 1571.5,1146.17 1571.5,1145.5C 1571.5,898.5 1571.5,651.5 1571.5,404.5C 1570.17,404.5 1568.83,404.5 1567.5,404.5C 1559.17,403.167 1550.83,401.834 1542.5,400.5C 1539.19,398.63 1535.52,397.63 1531.5,397.5C 1525.46,396.715 1519.46,395.715 1513.5,394.5C 1511.49,393.076 1509.15,392.41 1506.5,392.5C 1505.66,392.158 1505.33,391.492 1505.5,390.5C 1505.33,293.166 1505.5,195.833 1506,98.5C 1560.31,85.5464 1614.48,72.2131 1668.5,58.5 Z"/></g>
<g><path style="opacity:0.998" fill="#f48433" d="M 1668.5,58.5 C 1701.24,72.081 1734.24,85.081 1767.5,97.5C 1771.25,101.306 1775.92,103.639 1781.5,104.5C 1783.03,106.245 1785.03,107.245 1787.5,107.5C 1789.42,108.363 1791.42,109.029 1793.5,109.5C 1795.03,111.245 1797.03,112.245 1799.5,112.5C 1801.7,113.566 1804.03,114.233 1806.5,114.5C 1808.03,116.245 1810.03,117.245 1812.5,117.5C 1822.56,121.798 1832.73,125.798 1843,129.5C 1843.17,453.334 1843.67,777 1844.5,1100.5C 1844.5,1107.5 1844.5,1114.5 1844.5,1121.5C 1785.73,1132.85 1727.07,1144.85 1668.5,1157.5C 1668.5,791.167 1668.5,424.833 1668.5,58.5 Z"/></g>
<g><path style="opacity:1" fill="#c0652a" d="M 1781.5,104.5 C 1783.97,104.755 1785.97,105.755 1787.5,107.5C 1785.03,107.245 1783.03,106.245 1781.5,104.5 Z"/></g>
<g><path style="opacity:1" fill="#ca6b2c" d="M 1793.5,109.5 C 1795.97,109.755 1797.97,110.755 1799.5,112.5C 1797.03,112.245 1795.03,111.245 1793.5,109.5 Z"/></g>
<g><path style="opacity:1" fill="#c5682b" d="M 1806.5,114.5 C 1808.97,114.755 1810.97,115.755 1812.5,117.5C 1810.03,117.245 1808.03,116.245 1806.5,114.5 Z"/></g>
<g><path style="opacity:0.999" fill="#9d5025" d="M 1328.5,356.5 C 1328.83,645.501 1328.5,934.501 1327.5,1223.5C 1323.91,1222.57 1320.24,1222.24 1316.5,1222.5C 1312.82,1222.28 1309.15,1221.94 1305.5,1221.5C 1303.22,1219.78 1300.55,1219.11 1297.5,1219.5C 1293.15,1218.94 1288.81,1218.27 1284.5,1217.5C 1279.53,1215.24 1274.19,1214.24 1268.5,1214.5C 1267.5,1214.5 1266.5,1214.5 1265.5,1214.5C 1263.49,1213.08 1261.15,1212.41 1258.5,1212.5C 1248.41,1211.32 1238.41,1209.66 1228.5,1207.5C 1226.44,1206.22 1224.1,1205.39 1221.5,1205C 1215.85,1204.24 1210.18,1203.74 1204.5,1203.5C 1198.33,1202.27 1192,1201.27 1185.5,1200.5C 1185.17,926.43 1185.5,652.43 1186.5,378.5C 1233.82,370.8 1281.15,363.466 1328.5,356.5 Z"/></g>
<g><path style="opacity:0.999" fill="#a75627" d="M 1328.5,356.5 C 1328.83,356.5 1329.17,356.5 1329.5,356.5C 1329.5,645.833 1329.5,935.167 1329.5,1224.5C 1327.83,1224.5 1326.17,1224.5 1324.5,1224.5C 1321.83,1223.83 1319.17,1223.17 1316.5,1222.5C 1320.24,1222.24 1323.91,1222.57 1327.5,1223.5C 1328.5,934.501 1328.83,645.501 1328.5,356.5 Z"/></g>
<g><path style="opacity:0.999" fill="#f48433" d="M 1331.5,356.5 C 1382.43,366.713 1433.43,377.047 1484.5,387.5C 1491.46,388.827 1498.46,389.827 1505.5,390.5C 1505.33,391.492 1505.66,392.158 1506.5,392.5C 1508.51,393.924 1510.85,394.59 1513.5,394.5C 1519.46,395.715 1525.46,396.715 1531.5,397.5C 1531.61,398.117 1531.94,398.617 1532.5,399C 1535.83,399.61 1539.16,400.11 1542.5,400.5C 1550.83,401.834 1559.17,403.167 1567.5,404.5C 1568.21,405.404 1569.21,405.737 1570.5,405.5C 1570.17,652.334 1570.5,899.001 1571.5,1145.5C 1571.5,1146.17 1571.5,1146.83 1571.5,1147.5C 1571.5,1153.5 1571.5,1159.5 1571.5,1165.5C 1571.17,1165.5 1570.83,1165.5 1570.5,1165.5C 1569.52,1168.96 1569.19,1172.63 1569.5,1176.5C 1565.55,1176.88 1561.89,1177.88 1558.5,1179.5C 1557.83,1179.5 1557.17,1179.5 1556.5,1179.5C 1549.47,1180.45 1542.47,1181.62 1535.5,1183C 1534.58,1183.28 1533.92,1183.78 1533.5,1184.5C 1532.83,1184.5 1532.17,1184.5 1531.5,1184.5C 1523.6,1185.64 1515.93,1187.31 1508.5,1189.5C 1497.64,1190.67 1486.97,1192.67 1476.5,1195.5C 1469.51,1196.66 1462.51,1197.83 1455.5,1199C 1454.94,1199.38 1454.61,1199.88 1454.5,1200.5C 1453.83,1200.5 1453.17,1200.5 1452.5,1200.5C 1447.16,1201.22 1441.83,1202.06 1436.5,1203C 1435.58,1203.28 1434.92,1203.78 1434.5,1204.5C 1430.19,1205.27 1425.85,1205.94 1421.5,1206.5C 1418.57,1206.57 1415.91,1207.23 1413.5,1208.5C 1406.19,1209.96 1398.86,1211.29 1391.5,1212.5C 1387.96,1212.75 1384.63,1213.42 1381.5,1214.5C 1376.73,1216.02 1371.73,1217.02 1366.5,1217.5C 1362.16,1217.66 1358.16,1218.66 1354.5,1220.5C 1350.17,1221.17 1345.83,1221.83 1341.5,1222.5C 1338.52,1222.96 1335.52,1223.3 1332.5,1223.5C 1331.5,934.667 1331.17,645.667 1331.5,356.5 Z"/></g>
<g><path style="opacity:1" fill="#e47a31" d="M 1329.5,356.5 C 1330.17,356.5 1330.83,356.5 1331.5,356.5C 1331.17,645.667 1331.5,934.667 1332.5,1223.5C 1331.79,1224.4 1330.79,1224.74 1329.5,1224.5C 1329.5,935.167 1329.5,645.833 1329.5,356.5 Z"/></g>
<g><path style="opacity:1" fill="#c5682b" d="M 1506.5,392.5 C 1509.15,392.41 1511.49,393.076 1513.5,394.5C 1510.85,394.59 1508.51,393.924 1506.5,392.5 Z"/></g>
<g><path style="opacity:1" fill="#cd6c2d" d="M 1531.5,397.5 C 1535.52,397.63 1539.19,398.63 1542.5,400.5C 1539.16,400.11 1535.83,399.61 1532.5,399C 1531.94,398.617 1531.61,398.117 1531.5,397.5 Z"/></g>
<g><path style="opacity:1" fill="#a85726" d="M 1567.5,404.5 C 1568.83,404.5 1570.17,404.5 1571.5,404.5C 1571.5,651.5 1571.5,898.5 1571.5,1145.5C 1570.5,899.001 1570.17,652.334 1570.5,405.5C 1569.21,405.737 1568.21,405.404 1567.5,404.5 Z"/></g>
<g><path style="opacity:0.994" fill="#f48433" d="M 377.5,425.5 C 431.426,430.924 485.092,436.924 538.5,443.5C 538.5,492.5 538.5,541.5 538.5,590.5C 531.607,591.993 524.607,592.993 517.5,593.5C 506.155,594.112 494.822,594.945 483.5,596C 481.942,596.21 480.609,596.71 479.5,597.5C 478.5,597.5 477.5,597.5 476.5,597.5C 476.5,780.167 476.5,962.833 476.5,1145.5C 475.833,1145.5 475.5,1145.83 475.5,1146.5C 442.79,1150.48 410.123,1154.15 377.5,1157.5C 377.5,913.5 377.5,669.5 377.5,425.5 Z"/></g>
<g><path style="opacity:0.998" fill="#9d5025" d="M 377.5,425.5 C 377.5,669.5 377.5,913.5 377.5,1157.5C 319.286,1144.74 260.952,1132.74 202.5,1121.5C 202.5,1114.5 202.5,1107.5 202.5,1100.5C 203.833,996.833 203.833,893.167 202.5,789.5C 202.5,679.167 202.5,568.833 202.5,458.5C 260.929,447.597 319.262,436.597 377.5,425.5 Z"/></g>
<g><path style="opacity:0.999" fill="#9d5025" d="M 716.5,572.5 C 716.5,789.833 716.5,1007.17 716.5,1224.5C 714.565,1223.85 712.565,1223.52 710.5,1223.5C 704.963,1222.91 699.63,1221.91 694.5,1220.5C 691.727,1219.34 688.727,1218.68 685.5,1218.5C 679.807,1217.61 674.14,1216.61 668.5,1215.5C 666.485,1214.08 664.152,1213.41 661.5,1213.5C 653.45,1212.26 645.45,1210.92 637.5,1209.5C 635.485,1208.08 633.152,1207.41 630.5,1207.5C 624.807,1206.61 619.14,1205.61 613.5,1204.5C 611.485,1203.08 609.152,1202.41 606.5,1202.5C 598.967,1201.58 591.634,1200.25 584.5,1198.5C 579.638,1197.41 574.638,1196.41 569.5,1195.5C 567.708,1195.63 566.042,1195.3 564.5,1194.5C 561.155,1192.78 557.489,1192.12 553.5,1192.5C 548.638,1191.41 543.638,1190.41 538.5,1189.5C 538.082,1188.78 537.416,1188.28 536.5,1188C 533.854,1187.5 531.187,1187.34 528.5,1187.5C 521.622,1185.7 514.622,1184.37 507.5,1183.5C 507.082,1182.78 506.416,1182.28 505.5,1182C 500.863,1181.17 496.196,1180.67 491.5,1180.5C 486.951,1179.29 482.285,1178.13 477.5,1177C 476.862,1173.06 476.196,1169.23 475.5,1165.5C 475.5,1159.17 475.5,1152.83 475.5,1146.5C 475.5,1145.83 475.833,1145.5 476.5,1145.5C 477.117,1145.39 477.617,1145.06 478,1144.5C 478.5,962.5 478.667,780.5 478.5,598.5C 481.518,598.665 484.518,598.498 487.5,598C 488.416,597.722 489.082,597.222 489.5,596.5C 499.044,596.147 508.377,595.147 517.5,593.5C 524.607,592.993 531.607,591.993 538.5,590.5C 597.902,584.26 657.235,578.26 716.5,572.5 Z"/></g>
<g><path style="opacity:0.998" fill="#f58534" d="M 718.5,572.5 C 765.732,576.079 813.065,579.745 860.5,583.5C 861.164,789.709 860.497,995.709 858.5,1201.5C 854.64,1201.81 850.974,1202.48 847.5,1203.5C 843.511,1203.12 839.845,1203.78 836.5,1205.5C 833.167,1205.83 829.833,1206.17 826.5,1206.5C 820.844,1207.33 815.177,1208.16 809.5,1209C 808.584,1209.28 807.918,1209.78 807.5,1210.5C 806.833,1210.5 806.167,1210.5 805.5,1210.5C 796.997,1211.6 788.664,1212.93 780.5,1214.5C 770.37,1216.18 760.37,1217.84 750.5,1219.5C 745.464,1219.59 740.464,1220.09 735.5,1221C 734.944,1221.38 734.611,1221.88 734.5,1222.5C 731.14,1222.62 727.807,1222.95 724.5,1223.5C 722.435,1223.52 720.435,1223.85 718.5,1224.5C 718.5,1007.17 718.5,789.833 718.5,572.5 Z"/></g>
<g><path style="opacity:1" fill="#de772f" d="M 716.5,572.5 C 717.167,572.5 717.833,572.5 718.5,572.5C 718.5,789.833 718.5,1007.17 718.5,1224.5C 717.833,1224.5 717.167,1224.5 716.5,1224.5C 716.5,1007.17 716.5,789.833 716.5,572.5 Z"/></g>
<g><path style="opacity:1" fill="#da752f" d="M 860.5,583.5 C 861.5,788.999 861.833,994.666 861.5,1200.5C 861.5,1200.83 861.5,1201.17 861.5,1201.5C 860.5,1201.5 859.5,1201.5 858.5,1201.5C 860.497,995.709 861.164,789.709 860.5,583.5 Z"/></g>
<g><path style="opacity:1" fill="#d4712e" d="M 517.5,593.5 C 508.377,595.147 499.044,596.147 489.5,596.5C 486.214,597.207 482.881,597.54 479.5,597.5C 480.609,596.71 481.942,596.21 483.5,596C 494.822,594.945 506.155,594.112 517.5,593.5 Z"/></g>
<g><path style="opacity:1" fill="#ad5927" d="M 489.5,596.5 C 489.082,597.222 488.416,597.722 487.5,598C 484.518,598.498 481.518,598.665 478.5,598.5C 478.667,780.5 478.5,962.5 478,1144.5C 477.617,1145.06 477.117,1145.39 476.5,1145.5C 476.5,962.833 476.5,780.167 476.5,597.5C 477.5,597.5 478.5,597.5 479.5,597.5C 482.881,597.54 486.214,597.207 489.5,596.5 Z"/></g>
<g><path style="opacity:0.997" fill="#9c4f24" d="M -0.5,789.5 C 43.5,789.5 87.5,789.5 131.5,789.5C 131.5,894.833 131.5,1000.17 131.5,1105.5C 125.636,1105.16 119.803,1104.5 114,1103.5C 75.8189,1096.54 37.6523,1089.54 -0.5,1082.5C -0.5,984.833 -0.5,887.167 -0.5,789.5 Z"/></g>
<g><path style="opacity:0.996" fill="#f48433" d="M 131.5,789.5 C 155.167,789.5 178.833,789.5 202.5,789.5C 203.833,893.167 203.833,996.833 202.5,1100.5C 178.907,1103.1 155.24,1104.76 131.5,1105.5C 131.5,1000.17 131.5,894.833 131.5,789.5 Z"/></g>
<g><path style="opacity:0.997" fill="#fbbe91" d="M 475.5,1165.5 C 476.196,1169.23 476.862,1173.06 477.5,1177C 482.285,1178.13 486.951,1179.29 491.5,1180.5C 496.63,1181.91 501.963,1182.91 507.5,1183.5C 514.622,1184.37 521.622,1185.7 528.5,1187.5C 531.627,1188.58 534.96,1189.25 538.5,1189.5C 543.638,1190.41 548.638,1191.41 553.5,1192.5C 556.974,1193.52 560.64,1194.19 564.5,1194.5C 566.042,1195.3 567.708,1195.63 569.5,1195.5C 569.611,1196.12 569.944,1196.62 570.5,1197C 575.118,1197.99 579.785,1198.49 584.5,1198.5C 591.634,1200.25 598.967,1201.58 606.5,1202.5C 608.515,1203.92 610.848,1204.59 613.5,1204.5C 619.14,1205.61 624.807,1206.61 630.5,1207.5C 632.515,1208.92 634.848,1209.59 637.5,1209.5C 645.45,1210.92 653.45,1212.26 661.5,1213.5C 663.515,1214.92 665.848,1215.59 668.5,1215.5C 674.14,1216.61 679.807,1217.61 685.5,1218.5C 685.611,1219.12 685.944,1219.62 686.5,1220C 689.146,1220.5 691.813,1220.66 694.5,1220.5C 699.63,1221.91 704.963,1222.91 710.5,1223.5C 712.679,1224.93 715.179,1225.59 718,1225.5C 720.544,1225.66 722.71,1225 724.5,1223.5C 727.807,1222.95 731.14,1222.62 734.5,1222.5C 739.984,1221.67 745.318,1220.67 750.5,1219.5C 760.37,1217.84 770.37,1216.18 780.5,1214.5C 786.511,1214.2 792.511,1213.7 798.5,1213C 801.191,1212.84 803.524,1212.01 805.5,1210.5C 806.167,1210.5 806.833,1210.5 807.5,1210.5C 813.177,1209.81 818.844,1208.97 824.5,1208C 825.416,1207.72 826.082,1207.22 826.5,1206.5C 829.833,1206.17 833.167,1205.83 836.5,1205.5C 840.36,1205.19 844.026,1204.52 847.5,1203.5C 850.974,1202.48 854.64,1201.81 858.5,1201.5C 859.5,1201.5 860.5,1201.5 861.5,1201.5C 861.333,1218.5 861.5,1235.5 862,1252.5C 869.078,1254.16 876.244,1255.49 883.5,1256.5C 883.833,1256.5 884.167,1256.5 884.5,1256.5C 884.611,1257.12 884.944,1257.62 885.5,1258C 891.156,1258.97 896.823,1259.81 902.5,1260.5C 906.884,1261.38 911.217,1262.38 915.5,1263.5C 918.627,1264.58 921.96,1265.25 925.5,1265.5C 937.697,1268.37 950.03,1270.7 962.5,1272.5C 968.551,1274.57 974.884,1275.9 981.5,1276.5C 987.061,1278.04 992.727,1279.04 998.5,1279.5C 998.918,1280.22 999.584,1280.72 1000.5,1281C 1005.86,1281.73 1011.2,1282.56 1016.5,1283.5C 1018.76,1284.22 1021.1,1284.55 1023.5,1284.5C 1023.83,1284.5 1024.17,1284.5 1024.5,1284.5C 1030.42,1283.19 1036.42,1282.19 1042.5,1281.5C 1045.15,1281.59 1047.49,1280.92 1049.5,1279.5C 1052.19,1279.66 1054.85,1279.5 1057.5,1279C 1058.42,1278.72 1059.08,1278.22 1059.5,1277.5C 1063.11,1276.58 1066.78,1275.91 1070.5,1275.5C 1074.16,1275.05 1077.83,1274.55 1081.5,1274C 1082.42,1273.72 1083.08,1273.22 1083.5,1272.5C 1087.5,1271.83 1091.5,1271.17 1095.5,1270.5C 1100.19,1270.45 1104.52,1269.45 1108.5,1267.5C 1113.13,1266.62 1117.8,1265.95 1122.5,1265.5C 1131.21,1264.33 1139.88,1262.83 1148.5,1261C 1149.06,1260.62 1149.39,1260.12 1149.5,1259.5C 1150.5,1259.5 1151.5,1259.5 1152.5,1259.5C 1159.52,1258.53 1166.52,1257.36 1173.5,1256C 1174.06,1255.62 1174.39,1255.12 1174.5,1254.5C 1177.01,1253.25 1179.67,1252.58 1182.5,1252.5C 1183.5,1252.5 1184.5,1252.5 1185.5,1252.5C 1185.5,1235.17 1185.5,1217.83 1185.5,1200.5C 1192,1201.27 1198.33,1202.27 1204.5,1203.5C 1212.34,1205.01 1220.34,1206.34 1228.5,1207.5C 1238.41,1209.66 1248.41,1211.32 1258.5,1212.5C 1260.44,1214.16 1262.77,1214.83 1265.5,1214.5C 1266.5,1214.5 1267.5,1214.5 1268.5,1214.5C 1273.61,1216.04 1278.94,1217.04 1284.5,1217.5C 1288.81,1218.27 1293.15,1218.94 1297.5,1219.5C 1299.91,1220.77 1302.57,1221.43 1305.5,1221.5C 1309.15,1221.94 1312.82,1222.28 1316.5,1222.5C 1319.17,1223.17 1321.83,1223.83 1324.5,1224.5C 1329.69,1225.51 1335.03,1225.34 1340.5,1224C 1341.06,1223.62 1341.39,1223.12 1341.5,1222.5C 1345.83,1221.83 1350.17,1221.17 1354.5,1220.5C 1358.16,1220.05 1361.83,1219.55 1365.5,1219C 1366.06,1218.62 1366.39,1218.12 1366.5,1217.5C 1371.73,1217.02 1376.73,1216.02 1381.5,1214.5C 1384.19,1214.66 1386.85,1214.5 1389.5,1214C 1390.42,1213.72 1391.08,1213.22 1391.5,1212.5C 1398.86,1211.29 1406.19,1209.96 1413.5,1208.5C 1416.5,1208.71 1419.16,1208.04 1421.5,1206.5C 1425.85,1205.94 1430.19,1205.27 1434.5,1204.5C 1439.16,1203.84 1443.82,1203.17 1448.5,1202.5C 1450.33,1202.41 1451.67,1201.75 1452.5,1200.5C 1453.17,1200.5 1453.83,1200.5 1454.5,1200.5C 1461.46,1199.2 1468.46,1198.03 1475.5,1197C 1476.06,1196.62 1476.39,1196.12 1476.5,1195.5C 1486.97,1192.67 1497.64,1190.67 1508.5,1189.5C 1515.88,1188.66 1523.21,1187.49 1530.5,1186C 1531.06,1185.62 1531.39,1185.12 1531.5,1184.5C 1532.17,1184.5 1532.83,1184.5 1533.5,1184.5C 1540.46,1183.2 1547.46,1182.03 1554.5,1181C 1555.42,1180.72 1556.08,1180.22 1556.5,1179.5C 1557.17,1179.5 1557.83,1179.5 1558.5,1179.5C 1562.52,1178.96 1566.52,1178.3 1570.5,1177.5C 1570.5,1173.5 1570.5,1169.5 1570.5,1165.5C 1570.83,1165.5 1571.17,1165.5 1571.5,1165.5C 1715.74,1183.52 1860.07,1201.02 2004.5,1218C 2017.65,1220.32 2030.99,1221.98 2044.5,1223C 2045.06,1223.38 2045.39,1223.88 2045.5,1224.5C 2043.58,1225.07 2041.91,1226.07 2040.5,1227.5C 2030.91,1229.59 2021.58,1232.25 2012.5,1235.5C 2010.1,1235.26 2008.1,1235.93 2006.5,1237.5C 1953.71,1252.86 1901.04,1268.53 1848.5,1284.5C 1846.1,1284.26 1844.1,1284.93 1842.5,1286.5C 1832.27,1290.13 1821.93,1293.13 1811.5,1295.5C 1808.14,1295.69 1805.14,1296.69 1802.5,1298.5C 1799.99,1298.93 1797.66,1299.59 1795.5,1300.5C 1792.85,1300.41 1790.51,1301.08 1788.5,1302.5C 1787.79,1303.4 1786.79,1303.74 1785.5,1303.5C 1779.82,1304.42 1774.49,1306.09 1769.5,1308.5C 1765.6,1309.06 1761.94,1310.06 1758.5,1311.5C 1755.01,1311.45 1752.01,1312.45 1749.5,1314.5C 1736.68,1317.78 1724.01,1321.44 1711.5,1325.5C 1706.16,1326.61 1701.16,1328.28 1696.5,1330.5C 1685.48,1332.59 1674.81,1335.59 1664.5,1339.5C 1661.14,1339.69 1658.14,1340.69 1655.5,1342.5C 1635.24,1348.92 1614.9,1354.92 1594.5,1360.5C 1592.1,1360.26 1590.1,1360.93 1588.5,1362.5C 1566.94,1368.29 1545.61,1374.62 1524.5,1381.5C 1521.08,1381.53 1518.08,1382.53 1515.5,1384.5C 1499.38,1389.05 1483.38,1393.72 1467.5,1398.5C 1465.1,1398.26 1463.1,1398.93 1461.5,1400.5C 1450.87,1402.88 1440.54,1405.88 1430.5,1409.5C 1428.1,1409.26 1426.1,1409.93 1424.5,1411.5C 1420.98,1412.21 1417.64,1413.21 1414.5,1414.5C 1411.85,1414.41 1409.51,1415.08 1407.5,1416.5C 1402.64,1417.54 1397.98,1418.88 1393.5,1420.5C 1391.1,1420.26 1389.1,1420.93 1387.5,1422.5C 1379.32,1424.26 1371.32,1426.59 1363.5,1429.5C 1359.11,1429.97 1355.11,1431.3 1351.5,1433.5C 1331.92,1438.56 1312.59,1444.22 1293.5,1450.5C 1288.16,1451.61 1283.16,1453.28 1278.5,1455.5C 1266.68,1458.27 1255.01,1461.77 1243.5,1466C 1220.86,1472.02 1198.53,1478.52 1176.5,1485.5C 1173.01,1485.45 1170.01,1486.45 1167.5,1488.5C 1164.93,1488.72 1162.6,1489.39 1160.5,1490.5C 1157.85,1490.41 1155.51,1491.08 1153.5,1492.5C 1137.8,1497.01 1122.14,1501.67 1106.5,1506.5C 1103.08,1506.53 1100.08,1507.53 1097.5,1509.5C 1081.39,1514.05 1065.39,1518.72 1049.5,1523.5C 1047.1,1523.26 1045.1,1523.93 1043.5,1525.5C 1039.5,1526.5 1035.5,1527.5 1031.5,1528.5C 1028.65,1528.55 1026.32,1529.55 1024.5,1531.5C 1024.17,1531.5 1023.83,1531.5 1023.5,1531.5C 1023.17,1531.5 1022.83,1531.5 1022.5,1531.5C 1022.39,1530.88 1022.06,1530.38 1021.5,1530C 1018.15,1529.16 1014.82,1528.33 1011.5,1527.5C 1002.14,1524.6 992.803,1521.93 983.5,1519.5C 980.746,1518.05 977.746,1517.05 974.5,1516.5C 971.733,1516.14 969.067,1515.48 966.5,1514.5C 964.064,1513.13 961.397,1512.13 958.5,1511.5C 949.169,1508.61 939.835,1505.94 930.5,1503.5C 927.746,1502.05 924.746,1501.05 921.5,1500.5C 910.835,1497.24 900.168,1494.24 889.5,1491.5C 885.406,1489.72 881.073,1488.39 876.5,1487.5C 869.734,1485.48 863.067,1483.48 856.5,1481.5C 852.406,1479.72 848.073,1478.39 843.5,1477.5C 817.588,1470.28 791.921,1462.61 766.5,1454.5C 761.069,1452.39 755.403,1450.72 749.5,1449.5C 742.781,1447.36 736.114,1445.36 729.5,1443.5C 726.746,1442.05 723.746,1441.05 720.5,1440.5C 717.848,1440.59 715.515,1439.92 713.5,1438.5C 711.898,1436.93 709.898,1436.26 707.5,1436.5C 697.055,1433.62 686.721,1430.62 676.5,1427.5C 673.746,1426.05 670.746,1425.05 667.5,1424.5C 658.164,1421.61 648.83,1418.94 639.5,1416.5C 635.406,1414.72 631.073,1413.39 626.5,1412.5C 624.901,1412.77 623.568,1412.43 622.5,1411.5C 620.898,1409.93 618.898,1409.26 616.5,1409.5C 612.5,1408.5 608.5,1407.5 604.5,1406.5C 604.389,1405.88 604.056,1405.38 603.5,1405C 598.815,1403.83 594.148,1402.66 589.5,1401.5C 588.833,1401.5 588.167,1401.5 587.5,1401.5C 585.967,1399.75 583.967,1398.75 581.5,1398.5C 575.915,1397.77 570.582,1396.44 565.5,1394.5C 562.746,1393.05 559.746,1392.05 556.5,1391.5C 541.756,1387.16 527.089,1382.83 512.5,1378.5C 509.746,1377.05 506.746,1376.05 503.5,1375.5C 492.842,1372.24 482.175,1369.24 471.5,1366.5C 467.406,1364.72 463.073,1363.39 458.5,1362.5C 451.804,1360.26 445.137,1358.26 438.5,1356.5C 435.746,1355.05 432.746,1354.05 429.5,1353.5C 413.243,1349.44 397.243,1344.77 381.5,1339.5C 378.746,1338.05 375.746,1337.05 372.5,1336.5C 364.48,1333.9 356.48,1331.57 348.5,1329.5C 343.069,1327.39 337.403,1325.72 331.5,1324.5C 324.781,1322.36 318.114,1320.36 311.5,1318.5C 308.746,1317.05 305.746,1316.05 302.5,1315.5C 293.008,1313 283.675,1310.33 274.5,1307.5C 272.898,1305.93 270.898,1305.26 268.5,1305.5C 265.237,1304.52 261.903,1303.85 258.5,1303.5C 256.021,1301.43 253.021,1300.1 249.5,1299.5C 240.164,1296.61 230.83,1293.94 221.5,1291.5C 218.746,1290.05 215.746,1289.05 212.5,1288.5C 209.733,1288.14 207.067,1287.48 204.5,1286.5C 202.064,1285.13 199.397,1284.13 196.5,1283.5C 187.676,1280.63 178.676,1278.3 169.5,1276.5C 167.967,1274.75 165.967,1273.75 163.5,1273.5C 157.918,1272.68 152.584,1271.35 147.5,1269.5C 144.746,1268.05 141.746,1267.05 138.5,1266.5C 111.243,1258.94 84.2428,1250.94 57.5,1242.5C 55.4855,1241.08 53.1522,1240.41 50.5,1240.5C 40.584,1236.86 30.584,1233.86 20.5,1231.5C 16.406,1229.72 12.0726,1228.39 7.5,1227.5C 4.53899,1227.54 2.20566,1226.54 0.5,1224.5C 1.28913,1224.22 1.9558,1223.72 2.5,1223C 16.0141,1221.98 29.3474,1220.32 42.5,1218C 186.932,1201.02 331.265,1183.52 475.5,1165.5 Z"/></g>
<g><path style="opacity:0.996" fill="#f89f5f" d="M 1570.5,1165.5 C 1570.5,1169.5 1570.5,1173.5 1570.5,1177.5C 1566.52,1178.3 1562.52,1178.96 1558.5,1179.5C 1561.89,1177.88 1565.55,1176.88 1569.5,1176.5C 1569.19,1172.63 1569.52,1168.96 1570.5,1165.5 Z"/></g>
<g><path style="opacity:1" fill="#f9a569" d="M 1556.5,1179.5 C 1556.08,1180.22 1555.42,1180.72 1554.5,1181C 1547.46,1182.03 1540.46,1183.2 1533.5,1184.5C 1533.92,1183.78 1534.58,1183.28 1535.5,1183C 1542.47,1181.62 1549.47,1180.45 1556.5,1179.5 Z"/></g>
<g><path style="opacity:1" fill="#d49063" d="M 491.5,1180.5 C 496.196,1180.67 500.863,1181.17 505.5,1182C 506.416,1182.28 507.082,1182.78 507.5,1183.5C 501.963,1182.91 496.63,1181.91 491.5,1180.5 Z"/></g>
<g><path style="opacity:1" fill="#c0794d" d="M 528.5,1187.5 C 531.187,1187.34 533.854,1187.5 536.5,1188C 537.416,1188.28 538.082,1188.78 538.5,1189.5C 534.96,1189.25 531.627,1188.58 528.5,1187.5 Z"/></g>
<g><path style="opacity:1" fill="#faad75" d="M 1531.5,1184.5 C 1531.39,1185.12 1531.06,1185.62 1530.5,1186C 1523.21,1187.49 1515.88,1188.66 1508.5,1189.5C 1515.93,1187.31 1523.6,1185.64 1531.5,1184.5 Z"/></g>
<g><path style="opacity:1" fill="#bf774b" d="M 553.5,1192.5 C 557.489,1192.12 561.155,1192.78 564.5,1194.5C 560.64,1194.19 556.974,1193.52 553.5,1192.5 Z"/></g>
<g><path style="opacity:1" fill="#e19f72" d="M 569.5,1195.5 C 574.638,1196.41 579.638,1197.41 584.5,1198.5C 579.785,1198.49 575.118,1197.99 570.5,1197C 569.944,1196.62 569.611,1196.12 569.5,1195.5 Z"/></g>
<g><path style="opacity:1" fill="#f9a86d" d="M 1476.5,1195.5 C 1476.39,1196.12 1476.06,1196.62 1475.5,1197C 1468.46,1198.03 1461.46,1199.2 1454.5,1200.5C 1454.61,1199.88 1454.94,1199.38 1455.5,1199C 1462.51,1197.83 1469.51,1196.66 1476.5,1195.5 Z"/></g>
<g><path style="opacity:1" fill="#af6539" d="M 861.5,1200.5 C 862.332,1217.33 862.832,1234.33 863,1251.5C 868.586,1252.71 874.253,1253.71 880,1254.5C 881.681,1254.61 882.848,1255.27 883.5,1256.5C 876.244,1255.49 869.078,1254.16 862,1252.5C 861.5,1235.5 861.333,1218.5 861.5,1201.5C 861.5,1201.17 861.5,1200.83 861.5,1200.5 Z"/></g>
<g><path style="opacity:0.996" fill="#f69044" d="M 1185.5,1200.5 C 1185.5,1217.83 1185.5,1235.17 1185.5,1252.5C 1184.5,1252.5 1183.5,1252.5 1182.5,1252.5C 1184.14,1235.23 1185.14,1217.9 1185.5,1200.5 Z"/></g>
<g><path style="opacity:1" fill="#faae76" d="M 1452.5,1200.5 C 1451.67,1201.75 1450.33,1202.41 1448.5,1202.5C 1443.82,1203.17 1439.16,1203.84 1434.5,1204.5C 1434.92,1203.78 1435.58,1203.28 1436.5,1203C 1441.83,1202.06 1447.16,1201.22 1452.5,1200.5 Z"/></g>
<g><path style="opacity:1" fill="#c57e52" d="M 606.5,1202.5 C 609.152,1202.41 611.485,1203.08 613.5,1204.5C 610.848,1204.59 608.515,1203.92 606.5,1202.5 Z"/></g>
<g><path style="opacity:1" fill="#f9a568" d="M 847.5,1203.5 C 844.026,1204.52 840.36,1205.19 836.5,1205.5C 839.845,1203.78 843.511,1203.12 847.5,1203.5 Z"/></g>
<g><path style="opacity:1" fill="#b46b3f" d="M 1204.5,1203.5 C 1210.18,1203.74 1215.85,1204.24 1221.5,1205C 1224.1,1205.39 1226.44,1206.22 1228.5,1207.5C 1220.34,1206.34 1212.34,1205.01 1204.5,1203.5 Z"/></g>
<g><path style="opacity:1" fill="#f9a96f" d="M 826.5,1206.5 C 826.082,1207.22 825.416,1207.72 824.5,1208C 818.844,1208.97 813.177,1209.81 807.5,1210.5C 807.918,1209.78 808.584,1209.28 809.5,1209C 815.177,1208.16 820.844,1207.33 826.5,1206.5 Z"/></g>
<g><path style="opacity:1" fill="#f9a96f" d="M 1421.5,1206.5 C 1419.16,1208.04 1416.5,1208.71 1413.5,1208.5C 1415.91,1207.23 1418.57,1206.57 1421.5,1206.5 Z"/></g>
<g><path style="opacity:1" fill="#d08b5f" d="M 630.5,1207.5 C 633.152,1207.41 635.485,1208.08 637.5,1209.5C 634.848,1209.59 632.515,1208.92 630.5,1207.5 Z"/></g>
<g><path style="opacity:1" fill="#fab37f" d="M 805.5,1210.5 C 803.524,1212.01 801.191,1212.84 798.5,1213C 792.511,1213.7 786.511,1214.2 780.5,1214.5C 788.664,1212.93 796.997,1211.6 805.5,1210.5 Z"/></g>
<g><path style="opacity:1" fill="#d89568" d="M 1258.5,1212.5 C 1261.15,1212.41 1263.49,1213.08 1265.5,1214.5C 1262.77,1214.83 1260.44,1214.16 1258.5,1212.5 Z"/></g>
<g><path style="opacity:1" fill="#f9a96f" d="M 1391.5,1212.5 C 1391.08,1213.22 1390.42,1213.72 1389.5,1214C 1386.85,1214.5 1384.19,1214.66 1381.5,1214.5C 1384.63,1213.42 1387.96,1212.75 1391.5,1212.5 Z"/></g>
<g><path style="opacity:1" fill="#c57e52" d="M 661.5,1213.5 C 664.152,1213.41 666.485,1214.08 668.5,1215.5C 665.848,1215.59 663.515,1214.92 661.5,1213.5 Z"/></g>
<g><path style="opacity:1" fill="#c0784d" d="M 1268.5,1214.5 C 1274.19,1214.24 1279.53,1215.24 1284.5,1217.5C 1278.94,1217.04 1273.61,1216.04 1268.5,1214.5 Z"/></g>
<g><path style="opacity:1" fill="#d28e61" d="M 685.5,1218.5 C 688.727,1218.68 691.727,1219.34 694.5,1220.5C 691.813,1220.66 689.146,1220.5 686.5,1220C 685.944,1219.62 685.611,1219.12 685.5,1218.5 Z"/></g>
<g><path style="opacity:1" fill="#f9a96f" d="M 1366.5,1217.5 C 1366.39,1218.12 1366.06,1218.62 1365.5,1219C 1361.83,1219.55 1358.16,1220.05 1354.5,1220.5C 1358.16,1218.66 1362.16,1217.66 1366.5,1217.5 Z"/></g>
<g><path style="opacity:1" fill="#f79853" d="M 750.5,1219.5 C 745.318,1220.67 739.984,1221.67 734.5,1222.5C 734.611,1221.88 734.944,1221.38 735.5,1221C 740.464,1220.09 745.464,1219.59 750.5,1219.5 Z"/></g>
<g><path style="opacity:1" fill="#d38f62" d="M 1297.5,1219.5 C 1300.55,1219.11 1303.22,1219.78 1305.5,1221.5C 1302.57,1221.43 1299.91,1220.77 1297.5,1219.5 Z"/></g>
<g><path style="opacity:1" fill="#efa16a" d="M 710.5,1223.5 C 712.565,1223.52 714.565,1223.85 716.5,1224.5C 717.167,1224.5 717.833,1224.5 718.5,1224.5C 720.435,1223.85 722.435,1223.52 724.5,1223.5C 722.71,1225 720.544,1225.66 718,1225.5C 715.179,1225.59 712.679,1224.93 710.5,1223.5 Z"/></g>
<g><path style="opacity:1" fill="#f3a770" d="M 1341.5,1222.5 C 1341.39,1223.12 1341.06,1223.62 1340.5,1224C 1335.03,1225.34 1329.69,1225.51 1324.5,1224.5C 1326.17,1224.5 1327.83,1224.5 1329.5,1224.5C 1330.79,1224.74 1331.79,1224.4 1332.5,1223.5C 1335.52,1223.3 1338.52,1222.96 1341.5,1222.5 Z"/></g>
<g><path style="opacity:1" fill="#f8a264" d="M 2045.5,1224.5 C 2045.83,1224.5 2046.17,1224.5 2046.5,1224.5C 2045.1,1226.38 2043.1,1227.38 2040.5,1227.5C 2041.91,1226.07 2043.58,1225.07 2045.5,1224.5 Z"/></g>
<g><path style="opacity:0.998" fill="#9d5025" d="M -0.5,1224.5 C -0.166667,1224.5 0.166667,1224.5 0.5,1224.5C 2.20566,1226.54 4.53899,1227.54 7.5,1227.5C 7.61071,1228.12 7.94404,1228.62 8.5,1229C 12.447,1230.15 16.447,1230.99 20.5,1231.5C 30.584,1233.86 40.584,1236.86 50.5,1240.5C 52.5145,1241.92 54.8478,1242.59 57.5,1242.5C 84.2428,1250.94 111.243,1258.94 138.5,1266.5C 141.008,1268.55 144.008,1269.55 147.5,1269.5C 152.584,1271.35 157.918,1272.68 163.5,1273.5C 165.033,1275.25 167.033,1276.25 169.5,1276.5C 178.676,1278.3 187.676,1280.63 196.5,1283.5C 198.617,1285.65 201.284,1286.65 204.5,1286.5C 207.067,1287.48 209.733,1288.14 212.5,1288.5C 215.008,1290.55 218.008,1291.55 221.5,1291.5C 230.83,1293.94 240.164,1296.61 249.5,1299.5C 251.834,1302.15 254.834,1303.49 258.5,1303.5C 261.903,1303.85 265.237,1304.52 268.5,1305.5C 270.102,1307.07 272.102,1307.74 274.5,1307.5C 283.675,1310.33 293.008,1313 302.5,1315.5C 305.008,1317.55 308.008,1318.55 311.5,1318.5C 318.114,1320.36 324.781,1322.36 331.5,1324.5C 336.63,1327.21 342.297,1328.88 348.5,1329.5C 356.48,1331.57 364.48,1333.9 372.5,1336.5C 375.008,1338.55 378.008,1339.55 381.5,1339.5C 397.243,1344.77 413.243,1349.44 429.5,1353.5C 432.008,1355.55 435.008,1356.55 438.5,1356.5C 445.137,1358.26 451.804,1360.26 458.5,1362.5C 458.611,1363.12 458.944,1363.62 459.5,1364C 463.405,1365.36 467.405,1366.19 471.5,1366.5C 482.175,1369.24 492.842,1372.24 503.5,1375.5C 506.008,1377.55 509.008,1378.55 512.5,1378.5C 527.089,1382.83 541.756,1387.16 556.5,1391.5C 559.008,1393.55 562.008,1394.55 565.5,1394.5C 570.582,1396.44 575.915,1397.77 581.5,1398.5C 583.033,1400.25 585.033,1401.25 587.5,1401.5C 588.167,1401.5 588.833,1401.5 589.5,1401.5C 594.038,1404.12 599.038,1405.79 604.5,1406.5C 608.5,1407.5 612.5,1408.5 616.5,1409.5C 618.102,1411.07 620.102,1411.74 622.5,1411.5C 623.568,1412.43 624.901,1412.77 626.5,1412.5C 626.611,1413.12 626.944,1413.62 627.5,1414C 631.447,1415.15 635.447,1415.99 639.5,1416.5C 648.83,1418.94 658.164,1421.61 667.5,1424.5C 670.008,1426.55 673.008,1427.55 676.5,1427.5C 686.721,1430.62 697.055,1433.62 707.5,1436.5C 709.102,1438.07 711.102,1438.74 713.5,1438.5C 715.515,1439.92 717.848,1440.59 720.5,1440.5C 723.008,1442.55 726.008,1443.55 729.5,1443.5C 736.114,1445.36 742.781,1447.36 749.5,1449.5C 749.611,1450.12 749.944,1450.62 750.5,1451C 755.779,1452.49 761.112,1453.65 766.5,1454.5C 791.921,1462.61 817.588,1470.28 843.5,1477.5C 843.611,1478.12 843.944,1478.62 844.5,1479C 848.447,1480.15 852.447,1480.99 856.5,1481.5C 863.067,1483.48 869.734,1485.48 876.5,1487.5C 876.611,1488.12 876.944,1488.62 877.5,1489C 881.405,1490.36 885.405,1491.19 889.5,1491.5C 900.168,1494.24 910.835,1497.24 921.5,1500.5C 924.008,1502.55 927.008,1503.55 930.5,1503.5C 939.835,1505.94 949.169,1508.61 958.5,1511.5C 960.617,1513.65 963.284,1514.65 966.5,1514.5C 969.067,1515.48 971.733,1516.14 974.5,1516.5C 977.008,1518.55 980.008,1519.55 983.5,1519.5C 992.803,1521.93 1002.14,1524.6 1011.5,1527.5C 1011.61,1528.12 1011.94,1528.62 1012.5,1529C 1015.8,1530.03 1019.14,1530.86 1022.5,1531.5C 1022.83,1531.5 1023.17,1531.5 1023.5,1531.5C 1023.83,1696.9 1023.5,1862.24 1022.5,2027.5C 1021.83,2027.5 1021.17,2027.5 1020.5,2027.5C 1006.07,2020.12 991.736,2012.45 977.5,2004.5C 651.545,1841.25 325.545,1677.91 -0.5,1514.5C -0.5,1417.83 -0.5,1321.17 -0.5,1224.5 Z"/></g>
<g><path style="opacity:0.997" fill="#f58534" d="M 2046.5,1224.5 C 2046.83,1224.5 2047.17,1224.5 2047.5,1224.5C 2047.5,1321.17 2047.5,1417.83 2047.5,1514.5C 1721.44,1677.95 1395.44,1841.28 1069.5,2004.5C 1055.26,2012.45 1040.93,2020.12 1026.5,2027.5C 1026.17,2027.5 1025.83,2027.5 1025.5,2027.5C 1024.5,1862.21 1024.17,1696.87 1024.5,1531.5C 1027.16,1531.07 1029.49,1530.07 1031.5,1528.5C 1035.5,1527.5 1039.5,1526.5 1043.5,1525.5C 1045.9,1525.74 1047.9,1525.07 1049.5,1523.5C 1065.39,1518.72 1081.39,1514.05 1097.5,1509.5C 1100.86,1509.31 1103.86,1508.31 1106.5,1506.5C 1122.14,1501.67 1137.8,1497.01 1153.5,1492.5C 1156.15,1492.59 1158.49,1491.92 1160.5,1490.5C 1162.6,1489.39 1164.93,1488.72 1167.5,1488.5C 1170.81,1488.12 1173.81,1487.12 1176.5,1485.5C 1198.53,1478.52 1220.86,1472.02 1243.5,1466C 1255.01,1461.77 1266.68,1458.27 1278.5,1455.5C 1283.96,1454.79 1288.96,1453.12 1293.5,1450.5C 1312.59,1444.22 1331.92,1438.56 1351.5,1433.5C 1355.22,1432.98 1358.89,1432.15 1362.5,1431C 1363.06,1430.62 1363.39,1430.12 1363.5,1429.5C 1371.32,1426.59 1379.32,1424.26 1387.5,1422.5C 1389.9,1422.74 1391.9,1422.07 1393.5,1420.5C 1397.98,1418.88 1402.64,1417.54 1407.5,1416.5C 1410.15,1416.59 1412.49,1415.92 1414.5,1414.5C 1417.64,1413.21 1420.98,1412.21 1424.5,1411.5C 1426.9,1411.74 1428.9,1411.07 1430.5,1409.5C 1440.54,1405.88 1450.87,1402.88 1461.5,1400.5C 1463.9,1400.74 1465.9,1400.07 1467.5,1398.5C 1483.38,1393.72 1499.38,1389.05 1515.5,1384.5C 1518.86,1384.31 1521.86,1383.31 1524.5,1381.5C 1545.61,1374.62 1566.94,1368.29 1588.5,1362.5C 1590.9,1362.74 1592.9,1362.07 1594.5,1360.5C 1614.9,1354.92 1635.24,1348.92 1655.5,1342.5C 1658.92,1342.47 1661.92,1341.47 1664.5,1339.5C 1674.81,1335.59 1685.48,1332.59 1696.5,1330.5C 1701.96,1329.79 1706.96,1328.12 1711.5,1325.5C 1724.01,1321.44 1736.68,1317.78 1749.5,1314.5C 1752.75,1313.95 1755.75,1312.95 1758.5,1311.5C 1761.94,1310.06 1765.6,1309.06 1769.5,1308.5C 1774.52,1307.5 1779.52,1306.33 1784.5,1305C 1785.06,1304.62 1785.39,1304.12 1785.5,1303.5C 1786.79,1303.74 1787.79,1303.4 1788.5,1302.5C 1791.15,1302.59 1793.49,1301.92 1795.5,1300.5C 1797.66,1299.59 1799.99,1298.93 1802.5,1298.5C 1805.92,1298.47 1808.92,1297.47 1811.5,1295.5C 1821.93,1293.13 1832.27,1290.13 1842.5,1286.5C 1844.9,1286.74 1846.9,1286.07 1848.5,1284.5C 1901.04,1268.53 1953.71,1252.86 2006.5,1237.5C 2008.9,1237.74 2010.9,1237.07 2012.5,1235.5C 2021.58,1232.25 2030.91,1229.59 2040.5,1227.5C 2043.1,1227.38 2045.1,1226.38 2046.5,1224.5 Z"/></g>
<g><path style="opacity:1" fill="#b97145" d="M 7.5,1227.5 C 12.0726,1228.39 16.406,1229.72 20.5,1231.5C 16.447,1230.99 12.447,1230.15 8.5,1229C 7.94404,1228.62 7.61071,1228.12 7.5,1227.5 Z"/></g>
<g><path style="opacity:1" fill="#f79a57" d="M 2012.5,1235.5 C 2010.9,1237.07 2008.9,1237.74 2006.5,1237.5C 2008.1,1235.93 2010.1,1235.26 2012.5,1235.5 Z"/></g>
<g><path style="opacity:1" fill="#c98458" d="M 50.5,1240.5 C 53.1522,1240.41 55.4855,1241.08 57.5,1242.5C 54.8478,1242.59 52.5145,1241.92 50.5,1240.5 Z"/></g>
<g><path style="opacity:1" fill="#fab07a" d="M 1174.5,1254.5 C 1174.39,1255.12 1174.06,1255.62 1173.5,1256C 1166.52,1257.36 1159.52,1258.53 1152.5,1259.5C 1154.15,1258.07 1156.15,1257.24 1158.5,1257C 1163.83,1256.06 1169.16,1255.22 1174.5,1254.5 Z"/></g>
<g><path style="opacity:1" fill="#c88256" d="M 884.5,1256.5 C 890.765,1257.2 896.765,1258.54 902.5,1260.5C 896.823,1259.81 891.156,1258.97 885.5,1258C 884.944,1257.62 884.611,1257.12 884.5,1256.5 Z"/></g>
<g><path style="opacity:1" fill="#c47e52" d="M 915.5,1263.5 C 918.187,1263.34 920.854,1263.5 923.5,1264C 924.416,1264.28 925.082,1264.78 925.5,1265.5C 921.96,1265.25 918.627,1264.58 915.5,1263.5 Z"/></g>
<g><path style="opacity:1" fill="#fab07a" d="M 1149.5,1259.5 C 1149.39,1260.12 1149.06,1260.62 1148.5,1261C 1139.88,1262.83 1131.21,1264.33 1122.5,1265.5C 1131.2,1262.74 1140.2,1260.74 1149.5,1259.5 Z"/></g>
<g><path style="opacity:1" fill="#bf784c" d="M 138.5,1266.5 C 141.746,1267.05 144.746,1268.05 147.5,1269.5C 144.008,1269.55 141.008,1268.55 138.5,1266.5 Z"/></g>
<g><path style="opacity:1" fill="#f9a467" d="M 1108.5,1267.5 C 1104.52,1269.45 1100.19,1270.45 1095.5,1270.5C 1099.54,1268.76 1103.88,1267.76 1108.5,1267.5 Z"/></g>
<g><path style="opacity:1" fill="#cd885c" d="M 163.5,1273.5 C 165.967,1273.75 167.967,1274.75 169.5,1276.5C 167.033,1276.25 165.033,1275.25 163.5,1273.5 Z"/></g>
<g><path style="opacity:1" fill="#c37c50" d="M 962.5,1272.5 C 968.177,1273.19 973.844,1274.03 979.5,1275C 980.416,1275.28 981.082,1275.78 981.5,1276.5C 974.884,1275.9 968.551,1274.57 962.5,1272.5 Z"/></g>
<g><path style="opacity:1" fill="#f8a161" d="M 1083.5,1272.5 C 1083.08,1273.22 1082.42,1273.72 1081.5,1274C 1077.83,1274.55 1074.16,1275.05 1070.5,1275.5C 1074.54,1273.76 1078.88,1272.76 1083.5,1272.5 Z"/></g>
<g><path style="opacity:1" fill="#f9a86d" d="M 1059.5,1277.5 C 1059.08,1278.22 1058.42,1278.72 1057.5,1279C 1054.85,1279.5 1052.19,1279.66 1049.5,1279.5C 1052.63,1278.42 1055.96,1277.75 1059.5,1277.5 Z"/></g>
<g><path style="opacity:1" fill="#f9a66a" d="M 1049.5,1279.5 C 1047.49,1280.92 1045.15,1281.59 1042.5,1281.5C 1044.51,1280.08 1046.85,1279.41 1049.5,1279.5 Z"/></g>
<g><path style="opacity:1" fill="#b2693d" d="M 998.5,1279.5 C 1003.16,1280.16 1007.82,1280.83 1012.5,1281.5C 1014.33,1281.59 1015.67,1282.25 1016.5,1283.5C 1011.2,1282.56 1005.86,1281.73 1000.5,1281C 999.584,1280.72 998.918,1280.22 998.5,1279.5 Z"/></g>
<g><path style="opacity:1" fill="#c88256" d="M 196.5,1283.5 C 199.397,1284.13 202.064,1285.13 204.5,1286.5C 201.284,1286.65 198.617,1285.65 196.5,1283.5 Z"/></g>
<g><path style="opacity:1" fill="#f89b58" d="M 1848.5,1284.5 C 1846.9,1286.07 1844.9,1286.74 1842.5,1286.5C 1844.1,1284.93 1846.1,1284.26 1848.5,1284.5 Z"/></g>
<g><path style="opacity:1" fill="#c68053" d="M 212.5,1288.5 C 215.746,1289.05 218.746,1290.05 221.5,1291.5C 218.008,1291.55 215.008,1290.55 212.5,1288.5 Z"/></g>
<g><path style="opacity:1" fill="#f79b58" d="M 1811.5,1295.5 C 1808.92,1297.47 1805.92,1298.47 1802.5,1298.5C 1805.14,1296.69 1808.14,1295.69 1811.5,1295.5 Z"/></g>
<g><path style="opacity:1" fill="#f89e5d" d="M 1795.5,1300.5 C 1793.49,1301.92 1791.15,1302.59 1788.5,1302.5C 1790.51,1301.08 1792.85,1300.41 1795.5,1300.5 Z"/></g>
<g><path style="opacity:1" fill="#b3693e" d="M 249.5,1299.5 C 253.021,1300.1 256.021,1301.43 258.5,1303.5C 254.834,1303.49 251.834,1302.15 249.5,1299.5 Z"/></g>
<g><path style="opacity:1" fill="#ca8559" d="M 268.5,1305.5 C 270.898,1305.26 272.898,1305.93 274.5,1307.5C 272.102,1307.74 270.102,1307.07 268.5,1305.5 Z"/></g>
<g><path style="opacity:1" fill="#f7954e" d="M 1785.5,1303.5 C 1785.39,1304.12 1785.06,1304.62 1784.5,1305C 1779.52,1306.33 1774.52,1307.5 1769.5,1308.5C 1774.49,1306.09 1779.82,1304.42 1785.5,1303.5 Z"/></g>
<g><path style="opacity:1" fill="#f8a263" d="M 1758.5,1311.5 C 1755.75,1312.95 1752.75,1313.95 1749.5,1314.5C 1752.01,1312.45 1755.01,1311.45 1758.5,1311.5 Z"/></g>
<g><path style="opacity:1" fill="#c17a4e" d="M 302.5,1315.5 C 305.746,1316.05 308.746,1317.05 311.5,1318.5C 308.008,1318.55 305.008,1317.55 302.5,1315.5 Z"/></g>
<g><path style="opacity:1" fill="#b66d41" d="M 331.5,1324.5 C 337.403,1325.72 343.069,1327.39 348.5,1329.5C 342.297,1328.88 336.63,1327.21 331.5,1324.5 Z"/></g>
<g><path style="opacity:1" fill="#f7954f" d="M 1711.5,1325.5 C 1706.96,1328.12 1701.96,1329.79 1696.5,1330.5C 1701.16,1328.28 1706.16,1326.61 1711.5,1325.5 Z"/></g>
<g><path style="opacity:1" fill="#bc7448" d="M 372.5,1336.5 C 375.746,1337.05 378.746,1338.05 381.5,1339.5C 378.008,1339.55 375.008,1338.55 372.5,1336.5 Z"/></g>
<g><path style="opacity:1" fill="#f79a56" d="M 1664.5,1339.5 C 1661.92,1341.47 1658.92,1342.47 1655.5,1342.5C 1658.14,1340.69 1661.14,1339.69 1664.5,1339.5 Z"/></g>
<g><path style="opacity:1" fill="#bf784c" d="M 429.5,1353.5 C 432.746,1354.05 435.746,1355.05 438.5,1356.5C 435.008,1356.55 432.008,1355.55 429.5,1353.5 Z"/></g>
<g><path style="opacity:1" fill="#f79a57" d="M 1594.5,1360.5 C 1592.9,1362.07 1590.9,1362.74 1588.5,1362.5C 1590.1,1360.93 1592.1,1360.26 1594.5,1360.5 Z"/></g>
<g><path style="opacity:1" fill="#b3693e" d="M 458.5,1362.5 C 463.073,1363.39 467.406,1364.72 471.5,1366.5C 467.405,1366.19 463.405,1365.36 459.5,1364C 458.944,1363.62 458.611,1363.12 458.5,1362.5 Z"/></g>
<g><path style="opacity:1" fill="#c57f52" d="M 503.5,1375.5 C 506.746,1376.05 509.746,1377.05 512.5,1378.5C 509.008,1378.55 506.008,1377.55 503.5,1375.5 Z"/></g>
<g><path style="opacity:1" fill="#f89b58" d="M 1524.5,1381.5 C 1521.86,1383.31 1518.86,1384.31 1515.5,1384.5C 1518.08,1382.53 1521.08,1381.53 1524.5,1381.5 Z"/></g>
<g><path style="opacity:1" fill="#bf784c" d="M 556.5,1391.5 C 559.746,1392.05 562.746,1393.05 565.5,1394.5C 562.008,1394.55 559.008,1393.55 556.5,1391.5 Z"/></g>
<g><path style="opacity:1" fill="#cd885c" d="M 581.5,1398.5 C 583.967,1398.75 585.967,1399.75 587.5,1401.5C 585.033,1401.25 583.033,1400.25 581.5,1398.5 Z"/></g>
<g><path style="opacity:1" fill="#f79955" d="M 1467.5,1398.5 C 1465.9,1400.07 1463.9,1400.74 1461.5,1400.5C 1463.1,1398.93 1465.1,1398.26 1467.5,1398.5 Z"/></g>
<g><path style="opacity:1" fill="#bd764a" d="M 589.5,1401.5 C 594.148,1402.66 598.815,1403.83 603.5,1405C 604.056,1405.38 604.389,1405.88 604.5,1406.5C 599.038,1405.79 594.038,1404.12 589.5,1401.5 Z"/></g>
<g><path style="opacity:1" fill="#d08b5f" d="M 616.5,1409.5 C 618.898,1409.26 620.898,1409.93 622.5,1411.5C 620.102,1411.74 618.102,1411.07 616.5,1409.5 Z"/></g>
<g><path style="opacity:1" fill="#f89c59" d="M 1430.5,1409.5 C 1428.9,1411.07 1426.9,1411.74 1424.5,1411.5C 1426.1,1409.93 1428.1,1409.26 1430.5,1409.5 Z"/></g>
<g><path style="opacity:1" fill="#be764a" d="M 626.5,1412.5 C 631.073,1413.39 635.406,1414.72 639.5,1416.5C 635.447,1415.99 631.447,1415.15 627.5,1414C 626.944,1413.62 626.611,1413.12 626.5,1412.5 Z"/></g>
<g><path style="opacity:1" fill="#f89c5a" d="M 1414.5,1414.5 C 1412.49,1415.92 1410.15,1416.59 1407.5,1416.5C 1409.51,1415.08 1411.85,1414.41 1414.5,1414.5 Z"/></g>
<g><path style="opacity:1" fill="#f89d5c" d="M 1393.5,1420.5 C 1391.9,1422.07 1389.9,1422.74 1387.5,1422.5C 1389.1,1420.93 1391.1,1420.26 1393.5,1420.5 Z"/></g>
<g><path style="opacity:1" fill="#ca8458" d="M 667.5,1424.5 C 670.746,1425.05 673.746,1426.05 676.5,1427.5C 673.008,1427.55 670.008,1426.55 667.5,1424.5 Z"/></g>
<g><path style="opacity:1" fill="#f79650" d="M 1363.5,1429.5 C 1363.39,1430.12 1363.06,1430.62 1362.5,1431C 1358.89,1432.15 1355.22,1432.98 1351.5,1433.5C 1355.11,1431.3 1359.11,1429.97 1363.5,1429.5 Z"/></g>
<g><path style="opacity:1" fill="#d9966a" d="M 707.5,1436.5 C 709.898,1436.26 711.898,1436.93 713.5,1438.5C 711.102,1438.74 709.102,1438.07 707.5,1436.5 Z"/></g>
<g><path style="opacity:1" fill="#c17a4e" d="M 720.5,1440.5 C 723.746,1441.05 726.746,1442.05 729.5,1443.5C 726.008,1443.55 723.008,1442.55 720.5,1440.5 Z"/></g>
<g><path style="opacity:1" fill="#b76e42" d="M 749.5,1449.5 C 755.403,1450.72 761.069,1452.39 766.5,1454.5C 761.112,1453.65 755.779,1452.49 750.5,1451C 749.944,1450.62 749.611,1450.12 749.5,1449.5 Z"/></g>
<g><path style="opacity:1" fill="#f7954f" d="M 1293.5,1450.5 C 1288.96,1453.12 1283.96,1454.79 1278.5,1455.5C 1283.16,1453.28 1288.16,1451.61 1293.5,1450.5 Z"/></g>
<g><path style="opacity:1" fill="#b97145" d="M 843.5,1477.5 C 848.073,1478.39 852.406,1479.72 856.5,1481.5C 852.447,1480.99 848.447,1480.15 844.5,1479C 843.944,1478.62 843.611,1478.12 843.5,1477.5 Z"/></g>
<g><path style="opacity:1" fill="#f8a365" d="M 1176.5,1485.5 C 1173.81,1487.12 1170.81,1488.12 1167.5,1488.5C 1170.01,1486.45 1173.01,1485.45 1176.5,1485.5 Z"/></g>
<g><path style="opacity:1" fill="#b36a3e" d="M 876.5,1487.5 C 881.073,1488.39 885.406,1489.72 889.5,1491.5C 885.405,1491.19 881.405,1490.36 877.5,1489C 876.944,1488.62 876.611,1488.12 876.5,1487.5 Z"/></g>
<g><path style="opacity:1" fill="#f79a56" d="M 1160.5,1490.5 C 1158.49,1491.92 1156.15,1492.59 1153.5,1492.5C 1155.51,1491.08 1157.85,1490.41 1160.5,1490.5 Z"/></g>
<g><path style="opacity:1" fill="#c67f53" d="M 921.5,1500.5 C 924.746,1501.05 927.746,1502.05 930.5,1503.5C 927.008,1503.55 924.008,1502.55 921.5,1500.5 Z"/></g>
<g><path style="opacity:1" fill="#f89b58" d="M 1106.5,1506.5 C 1103.86,1508.31 1100.86,1509.31 1097.5,1509.5C 1100.08,1507.53 1103.08,1506.53 1106.5,1506.5 Z"/></g>
<g><path style="opacity:1" fill="#c27b4f" d="M 958.5,1511.5 C 961.397,1512.13 964.064,1513.13 966.5,1514.5C 963.284,1514.65 960.617,1513.65 958.5,1511.5 Z"/></g>
<g><path style="opacity:1" fill="#bf784c" d="M 974.5,1516.5 C 977.746,1517.05 980.746,1518.05 983.5,1519.5C 980.008,1519.55 977.008,1518.55 974.5,1516.5 Z"/></g>
<g><path style="opacity:1" fill="#f79955" d="M 1049.5,1523.5 C 1047.9,1525.07 1045.9,1525.74 1043.5,1525.5C 1045.1,1523.93 1047.1,1523.26 1049.5,1523.5 Z"/></g>
<g><path style="opacity:1" fill="#c17a4e" d="M 1011.5,1527.5 C 1014.82,1528.33 1018.15,1529.16 1021.5,1530C 1022.06,1530.38 1022.39,1530.88 1022.5,1531.5C 1019.14,1530.86 1015.8,1530.03 1012.5,1529C 1011.94,1528.62 1011.61,1528.12 1011.5,1527.5 Z"/></g>
<g><path style="opacity:1" fill="#f8a162" d="M 1031.5,1528.5 C 1029.49,1530.07 1027.16,1531.07 1024.5,1531.5C 1026.32,1529.55 1028.65,1528.55 1031.5,1528.5 Z"/></g>
<g><path style="opacity:0.996" fill="#eb8840" d="M 1023.5,1531.5 C 1023.83,1531.5 1024.17,1531.5 1024.5,1531.5C 1024.17,1696.87 1024.5,1862.21 1025.5,2027.5C 1024.5,2027.5 1023.5,2027.5 1022.5,2027.5C 1023.5,1862.24 1023.83,1696.9 1023.5,1531.5 Z"/></g>
</svg>
