<svg xmlns="http://www.w3.org/2000/svg" version="1.1" viewBox="0 0 1817 2048" style="shape-rendering:geometricPrecision; text-rendering:geometricPrecision; image-rendering:optimizeQuality; fill-rule:evenodd; clip-rule:evenodd" xmlns:xlink="http://www.w3.org/1999/xlink">
<g><path style="opacity:0.997" fill="#1f5b98" d="M 614.5,-0.5 C 615.833,-0.5 617.167,-0.5 618.5,-0.5C 618.169,129.237 618.502,258.903 619.5,388.5C 485.4,429.455 351.4,470.788 217.5,512.5C 215.883,513.038 214.216,513.371 212.5,513.5C 212.5,409.5 212.5,305.5 212.5,201.5C 346.662,134.345 480.662,67.0114 614.5,-0.5 Z"/></g>
<g><path style="opacity:1" fill="#2c71b7" d="M 618.5,-0.5 C 811.167,-0.5 1003.83,-0.5 1196.5,-0.5C 1196.5,129.167 1196.5,258.833 1196.5,388.5C 1004.17,388.5 811.833,388.5 619.5,388.5C 618.502,258.903 618.169,129.237 618.5,-0.5 Z"/></g>
<g><path style="opacity:0.999" fill="#5193ce" d="M 1196.5,-0.5 C 1197.83,-0.5 1199.17,-0.5 1200.5,-0.5C 1334.58,67.2023 1468.91,134.536 1603.5,201.5C 1603.83,305.668 1603.5,409.668 1602.5,513.5C 1602.17,513.5 1601.83,513.5 1601.5,513.5C 1599.49,512.076 1597.15,511.41 1594.5,511.5C 1591.42,510.696 1588.42,509.696 1585.5,508.5C 1581.49,506.342 1577.16,505.009 1572.5,504.5C 1555.74,499.81 1539.07,494.81 1522.5,489.5C 1519.92,487.528 1516.92,486.528 1513.5,486.5C 1510.45,485.654 1507.45,484.654 1504.5,483.5C 1502.49,482.076 1500.15,481.41 1497.5,481.5C 1494.42,480.696 1491.42,479.696 1488.5,478.5C 1484.5,476.39 1480.16,475.057 1475.5,474.5C 1451.83,467.165 1428.16,459.832 1404.5,452.5C 1402.49,451.076 1400.15,450.41 1397.5,450.5C 1395.11,449.985 1392.77,449.319 1390.5,448.5C 1387.92,446.528 1384.92,445.528 1381.5,445.5C 1379.42,445.029 1377.42,444.363 1375.5,443.5C 1371.5,441.39 1367.16,440.057 1362.5,439.5C 1361.39,439.443 1360.39,439.11 1359.5,438.5C 1355.5,436.39 1351.16,435.057 1346.5,434.5C 1333.39,430.774 1320.39,426.774 1307.5,422.5C 1305.49,421.076 1303.15,420.41 1300.5,420.5C 1297.42,419.696 1294.42,418.696 1291.5,417.5C 1289.49,416.076 1287.15,415.41 1284.5,415.5C 1281.42,414.696 1278.42,413.696 1275.5,412.5C 1271.49,410.342 1267.16,409.009 1262.5,408.5C 1261.39,408.443 1260.39,408.11 1259.5,407.5C 1255.49,405.342 1251.16,404.009 1246.5,403.5C 1245.39,403.443 1244.39,403.11 1243.5,402.5C 1239.5,400.39 1235.16,399.057 1230.5,398.5C 1219.16,395.164 1207.83,391.83 1196.5,388.5C 1196.5,258.833 1196.5,129.167 1196.5,-0.5 Z"/></g>
<g><path style="opacity:1" fill="#1a4b79" d="M 212.5,201.5 C 212.5,305.5 212.5,409.5 212.5,513.5C 214.216,513.371 215.883,513.038 217.5,512.5C 216.01,514.28 214.01,514.946 211.5,514.5C 211.667,411.166 211.5,307.833 211,204.5C 210.329,205.252 209.496,205.586 208.5,205.5C 209.5,203.833 210.833,202.5 212.5,201.5 Z"/></g>
<g><path style="opacity:0.999" fill="#1a476f" d="M 217.5,512.5 C 351.4,470.788 485.4,429.455 619.5,388.5C 811.833,388.5 1004.17,388.5 1196.5,388.5C 1207.83,391.83 1219.16,395.164 1230.5,398.5C 1234.5,400.61 1238.84,401.943 1243.5,402.5C 1244.39,403.11 1245.39,403.443 1246.5,403.5C 1250.5,405.61 1254.84,406.943 1259.5,407.5C 1260.39,408.11 1261.39,408.443 1262.5,408.5C 1266.5,410.61 1270.84,411.943 1275.5,412.5C 1278.42,413.696 1281.42,414.696 1284.5,415.5C 1286.51,416.924 1288.85,417.59 1291.5,417.5C 1294.42,418.696 1297.42,419.696 1300.5,420.5C 1302.51,421.924 1304.85,422.59 1307.5,422.5C 1320.39,426.774 1333.39,430.774 1346.5,434.5C 1350.5,436.61 1354.84,437.943 1359.5,438.5C 1360.39,439.11 1361.39,439.443 1362.5,439.5C 1366.5,441.61 1370.84,442.943 1375.5,443.5C 1377.42,444.363 1379.42,445.029 1381.5,445.5C 1384.22,447.072 1387.22,448.072 1390.5,448.5C 1392.77,449.319 1395.11,449.985 1397.5,450.5C 1399.51,451.924 1401.85,452.59 1404.5,452.5C 1428.16,459.832 1451.83,467.165 1475.5,474.5C 1479.5,476.61 1483.84,477.943 1488.5,478.5C 1491.42,479.696 1494.42,480.696 1497.5,481.5C 1499.51,482.924 1501.85,483.59 1504.5,483.5C 1507.45,484.654 1510.45,485.654 1513.5,486.5C 1516.22,488.072 1519.22,489.072 1522.5,489.5C 1539.07,494.81 1555.74,499.81 1572.5,504.5C 1576.5,506.61 1580.84,507.943 1585.5,508.5C 1588.42,509.696 1591.42,510.696 1594.5,511.5C 1596.51,512.924 1598.85,513.59 1601.5,513.5C 1601.83,513.5 1602.17,513.5 1602.5,513.5C 1673.68,564.922 1744.68,616.589 1815.5,668.5C 1795.34,671.241 1775.01,673.741 1754.5,676C 1753.51,692.423 1753.18,708.923 1753.5,725.5C 1703.28,699.724 1653.28,673.391 1603.5,646.5C 1592.7,644.8 1582.03,642.467 1571.5,639.5C 1569.49,638.076 1567.15,637.41 1564.5,637.5C 1552.35,635.463 1540.35,632.796 1528.5,629.5C 1526.49,628.076 1524.15,627.41 1521.5,627.5C 1450.43,611.572 1379.43,595.239 1308.5,578.5C 1306.49,577.076 1304.15,576.41 1301.5,576.5C 1289.34,574.458 1277.34,571.792 1265.5,568.5C 1263.49,567.076 1261.15,566.41 1258.5,566.5C 1238.53,561.907 1218.53,557.574 1198.5,553.5C 1198.16,552.662 1197.49,552.328 1196.5,552.5C 1003.83,552.5 811.167,552.5 618.5,552.5C 483.075,583.523 347.741,614.857 212.5,646.5C 211.501,749.999 211.167,853.665 211.5,957.5C 219.684,957.826 227.684,957.492 235.5,956.5C 311.844,953.798 388.178,950.798 464.5,947.5C 478.686,947.491 492.686,946.824 506.5,945.5C 543.821,943.859 581.155,942.526 618.5,941.5C 811.167,941.5 1003.83,941.5 1196.5,941.5C 1242.82,943.317 1289.16,944.984 1335.5,946.5C 1348.98,947.856 1362.65,948.523 1376.5,948.5C 1446.14,951.807 1515.81,954.473 1585.5,956.5C 1606.69,958.07 1628.03,959.737 1649.5,961.5C 1654.6,962.957 1659.93,963.624 1665.5,963.5C 1715.37,967.851 1765.04,972.851 1814.5,978.5C 1794.16,978.365 1773.82,978.699 1753.5,979.5C 1753.5,1009.17 1753.5,1038.83 1753.5,1068.5C 1770.84,1068.41 1788.18,1068.75 1805.5,1069.5C 1760.34,1074.11 1715,1078.44 1669.5,1082.5C 1663.25,1082.18 1657.25,1082.85 1651.5,1084.5C 1628.72,1086.66 1606.05,1088.33 1583.5,1089.5C 1501.83,1092.83 1420.17,1096.17 1338.5,1099.5C 1324.65,1099.48 1310.98,1100.14 1297.5,1101.5C 1277.17,1102.17 1256.83,1102.83 1236.5,1103.5C 1224.3,1103.32 1212.3,1103.98 1200.5,1105.5C 1199.17,1105.5 1197.83,1105.5 1196.5,1105.5C 1003.83,1105.5 811.167,1105.5 618.5,1105.5C 496.847,1100.46 375.181,1095.46 253.5,1090.5C 239.698,1088.92 225.698,1088.25 211.5,1088.5C 211.167,1192.67 211.501,1296.67 212.5,1400.5C 347.705,1431.87 483.038,1462.87 618.5,1493.5C 811.833,1494.83 1005.17,1494.83 1198.5,1493.5C 1203.46,1492.34 1208.46,1491.34 1213.5,1490.5C 1216.15,1490.59 1218.49,1489.92 1220.5,1488.5C 1348.18,1459.16 1475.85,1429.83 1603.5,1400.5C 1652.24,1374.63 1700.91,1348.46 1749.5,1322C 1750.79,1321.51 1752.13,1321.34 1753.5,1321.5C 1753.5,1338.17 1753.5,1354.83 1753.5,1371.5C 1773.87,1373.52 1794.2,1375.86 1814.5,1378.5C 1744.74,1430.55 1674.4,1481.89 1603.5,1532.5C 1602.51,1532.33 1601.84,1532.66 1601.5,1533.5C 1601.17,1533.5 1600.83,1533.5 1600.5,1533.5C 1595.84,1534.06 1591.5,1535.39 1587.5,1537.5C 1531.46,1554.62 1475.46,1571.96 1419.5,1589.5C 1416.85,1589.41 1414.51,1590.08 1412.5,1591.5C 1410.25,1592.46 1407.92,1593.12 1405.5,1593.5C 1402.22,1593.93 1399.22,1594.93 1396.5,1596.5C 1361.16,1607.5 1325.83,1618.5 1290.5,1629.5C 1285.84,1630.06 1281.5,1631.39 1277.5,1633.5C 1276.39,1633.56 1275.39,1633.89 1274.5,1634.5C 1269.84,1635.06 1265.5,1636.39 1261.5,1638.5C 1260.39,1638.56 1259.39,1638.89 1258.5,1639.5C 1253.84,1640.06 1249.5,1641.39 1245.5,1643.5C 1229.05,1648.12 1212.72,1653.12 1196.5,1658.5C 1004.17,1658.5 811.833,1658.5 619.5,1658.5C 619.167,1658.5 618.833,1658.5 618.5,1658.5C 483.51,1616 348.343,1574 213,1532.5C 212.833,1636.67 212.333,1740.67 211.5,1844.5C 143.024,1764.49 74.5241,1684.16 6,1603.5C 3.91706,1601.24 1.7504,1599.24 -0.5,1597.5C -0.5,1523.83 -0.5,1450.17 -0.5,1376.5C 1.04432,1376.7 2.37765,1377.37 3.5,1378.5C 22.7793,1375.75 42.1126,1373.42 61.5,1371.5C 61.5,1354.17 61.5,1336.83 61.5,1319.5C 40.6779,1309.4 20.0113,1298.73 -0.5,1287.5C -0.5,1214.5 -0.5,1141.5 -0.5,1068.5C 20.1481,1068.98 40.8147,1068.98 61.5,1068.5C 61.5,1038.83 61.5,1009.17 61.5,979.5C 40.8445,978.677 20.1778,978.344 -0.5,978.5C -0.5,905.5 -0.5,832.5 -0.5,759.5C 19.9623,748.355 40.629,737.688 61.5,727.5C 61.5,710.167 61.5,692.833 61.5,675.5C 42.4863,673.677 23.4863,671.677 4.5,669.5C 2.74218,669.592 1.07551,669.925 -0.5,670.5C -0.5,596.833 -0.5,523.167 -0.5,449.5C 69.5407,368.356 139.207,287.023 208.5,205.5C 209.496,205.586 210.329,205.252 211,204.5C 211.5,307.833 211.667,411.166 211.5,514.5C 214.01,514.946 216.01,514.28 217.5,512.5 Z"/></g>
<g><path style="opacity:0.995" fill="#2c71b7" d="M 1603.5,201.5 C 1674.2,283.371 1744.37,365.704 1814,448.5C 1814.67,449.252 1815.5,449.586 1816.5,449.5C 1816.5,522.5 1816.5,595.5 1816.5,668.5C 1816.17,668.5 1815.83,668.5 1815.5,668.5C 1744.68,616.589 1673.68,564.922 1602.5,513.5C 1603.5,409.668 1603.83,305.668 1603.5,201.5 Z"/></g>
<g><path style="opacity:1" fill="#427eb4" d="M 1230.5,398.5 C 1235.16,399.057 1239.5,400.39 1243.5,402.5C 1238.84,401.943 1234.5,400.61 1230.5,398.5 Z"/></g>
<g><path style="opacity:1" fill="#427eb3" d="M 1246.5,403.5 C 1251.16,404.009 1255.49,405.342 1259.5,407.5C 1254.84,406.943 1250.5,405.61 1246.5,403.5 Z"/></g>
<g><path style="opacity:1" fill="#417cb1" d="M 1262.5,408.5 C 1267.16,409.009 1271.49,410.342 1275.5,412.5C 1270.84,411.943 1266.5,410.61 1262.5,408.5 Z"/></g>
<g><path style="opacity:1" fill="#3c76a9" d="M 1284.5,415.5 C 1287.15,415.41 1289.49,416.076 1291.5,417.5C 1288.85,417.59 1286.51,416.924 1284.5,415.5 Z"/></g>
<g><path style="opacity:1" fill="#3b74a7" d="M 1300.5,420.5 C 1303.15,420.41 1305.49,421.076 1307.5,422.5C 1304.85,422.59 1302.51,421.924 1300.5,420.5 Z"/></g>
<g><path style="opacity:1" fill="#407cb1" d="M 1346.5,434.5 C 1351.16,435.057 1355.5,436.39 1359.5,438.5C 1354.84,437.943 1350.5,436.61 1346.5,434.5 Z"/></g>
<g><path style="opacity:1" fill="#3e79ae" d="M 1362.5,439.5 C 1367.16,440.057 1371.5,441.39 1375.5,443.5C 1370.84,442.943 1366.5,441.61 1362.5,439.5 Z"/></g>
<g><path style="opacity:1" fill="#3b74a7" d="M 1381.5,445.5 C 1384.92,445.528 1387.92,446.528 1390.5,448.5C 1387.22,448.072 1384.22,447.072 1381.5,445.5 Z"/></g>
<g><path style="opacity:1" fill="#3d77ab" d="M 1397.5,450.5 C 1400.15,450.41 1402.49,451.076 1404.5,452.5C 1401.85,452.59 1399.51,451.924 1397.5,450.5 Z"/></g>
<g><path style="opacity:1" fill="#3f7aaf" d="M 1475.5,474.5 C 1480.16,475.057 1484.5,476.39 1488.5,478.5C 1483.84,477.943 1479.5,476.61 1475.5,474.5 Z"/></g>
<g><path style="opacity:1" fill="#3c76a9" d="M 1497.5,481.5 C 1500.15,481.41 1502.49,482.076 1504.5,483.5C 1501.85,483.59 1499.51,482.924 1497.5,481.5 Z"/></g>
<g><path style="opacity:1" fill="#3770a2" d="M 1513.5,486.5 C 1516.92,486.528 1519.92,487.528 1522.5,489.5C 1519.22,489.072 1516.22,488.072 1513.5,486.5 Z"/></g>
<g><path style="opacity:1" fill="#427fb5" d="M 1572.5,504.5 C 1577.16,505.009 1581.49,506.342 1585.5,508.5C 1580.84,507.943 1576.5,506.61 1572.5,504.5 Z"/></g>
<g><path style="opacity:1" fill="#3e78ad" d="M 1594.5,511.5 C 1597.15,511.41 1599.49,512.076 1601.5,513.5C 1598.85,513.59 1596.51,512.924 1594.5,511.5 Z"/></g>
<g><path style="opacity:1" fill="#1e5a97" d="M 618.5,552.5 C 618.5,682.167 618.5,811.833 618.5,941.5C 581.155,942.526 543.821,943.859 506.5,945.5C 492.302,945.25 478.302,945.916 464.5,947.5C 388.178,950.798 311.844,953.798 235.5,956.5C 227.833,956.5 220.167,956.5 212.5,956.5C 212.5,853.167 212.5,749.833 212.5,646.5C 347.741,614.857 483.075,583.523 618.5,552.5 Z"/></g>
<g><path style="opacity:0.996" fill="#2868aa" d="M 618.5,552.5 C 811.167,552.5 1003.83,552.5 1196.5,552.5C 1196.5,552.833 1196.5,553.167 1196.5,553.5C 1004.17,553.5 811.833,553.5 619.5,553.5C 619.5,682.5 619.5,811.5 619.5,940.5C 811.833,940.5 1004.17,940.5 1196.5,940.5C 1196.5,940.833 1196.5,941.167 1196.5,941.5C 1003.83,941.5 811.167,941.5 618.5,941.5C 618.5,811.833 618.5,682.167 618.5,552.5 Z"/></g>
<g><path style="opacity:1" fill="#2d72b8" d="M 1196.5,553.5 C 1196.5,682.5 1196.5,811.5 1196.5,940.5C 1004.17,940.5 811.833,940.5 619.5,940.5C 619.5,811.5 619.5,682.5 619.5,553.5C 811.833,553.5 1004.17,553.5 1196.5,553.5 Z"/></g>
<g><path style="opacity:1" fill="#4588c7" d="M 1196.5,552.5 C 1197.49,552.328 1198.16,552.662 1198.5,553.5C 1197.83,682.5 1197.17,811.5 1196.5,940.5C 1196.5,811.5 1196.5,682.5 1196.5,553.5C 1196.5,553.167 1196.5,552.833 1196.5,552.5 Z"/></g>
<g><path style="opacity:1" fill="#5193ce" d="M 1198.5,553.5 C 1218.53,557.574 1238.53,561.907 1258.5,566.5C 1260.51,567.924 1262.85,568.59 1265.5,568.5C 1277.34,571.792 1289.34,574.458 1301.5,576.5C 1303.51,577.924 1305.85,578.59 1308.5,578.5C 1379.43,595.239 1450.43,611.572 1521.5,627.5C 1523.51,628.924 1525.85,629.59 1528.5,629.5C 1540.35,632.796 1552.35,635.463 1564.5,637.5C 1566.51,638.924 1568.85,639.59 1571.5,639.5C 1582.03,642.467 1592.7,644.8 1603.5,646.5C 1603.5,749.833 1603.5,853.167 1603.5,956.5C 1597.5,956.5 1591.5,956.5 1585.5,956.5C 1515.81,954.473 1446.14,951.807 1376.5,948.5C 1363.02,947.144 1349.35,946.477 1335.5,946.5C 1289.16,944.984 1242.82,943.317 1196.5,941.5C 1196.5,941.167 1196.5,940.833 1196.5,940.5C 1197.17,811.5 1197.83,682.5 1198.5,553.5 Z"/></g>
<g><path style="opacity:1" fill="#306595" d="M 1258.5,566.5 C 1261.15,566.41 1263.49,567.076 1265.5,568.5C 1262.85,568.59 1260.51,567.924 1258.5,566.5 Z"/></g>
<g><path style="opacity:1" fill="#316797" d="M 1301.5,576.5 C 1304.15,576.41 1306.49,577.076 1308.5,578.5C 1305.85,578.59 1303.51,577.924 1301.5,576.5 Z"/></g>
<g><path style="opacity:1" fill="#326899" d="M 1521.5,627.5 C 1524.15,627.41 1526.49,628.076 1528.5,629.5C 1525.85,629.59 1523.51,628.924 1521.5,627.5 Z"/></g>
<g><path style="opacity:1" fill="#336a9a" d="M 1564.5,637.5 C 1567.15,637.41 1569.49,638.076 1571.5,639.5C 1568.85,639.59 1566.51,638.924 1564.5,637.5 Z"/></g>
<g><path style="opacity:1" fill="#1b4c79" d="M 212.5,646.5 C 212.5,749.833 212.5,853.167 212.5,956.5C 220.167,956.5 227.833,956.5 235.5,956.5C 227.684,957.492 219.684,957.826 211.5,957.5C 211.167,853.665 211.501,749.999 212.5,646.5 Z"/></g>
<g><path style="opacity:0.998" fill="#2c71b7" d="M 1603.5,646.5 C 1653.28,673.391 1703.28,699.724 1753.5,725.5C 1774.38,736.775 1795.38,747.775 1816.5,758.5C 1816.5,831.833 1816.5,905.167 1816.5,978.5C 1815.83,978.5 1815.17,978.5 1814.5,978.5C 1765.04,972.851 1715.37,967.851 1665.5,963.5C 1660.4,962.043 1655.07,961.376 1649.5,961.5C 1628.03,959.737 1606.69,958.07 1585.5,956.5C 1591.5,956.5 1597.5,956.5 1603.5,956.5C 1603.5,853.167 1603.5,749.833 1603.5,646.5 Z"/></g>
<g><path style="opacity:1" fill="#1c5185" d="M 506.5,945.5 C 492.686,946.824 478.686,947.491 464.5,947.5C 478.302,945.916 492.302,945.25 506.5,945.5 Z"/></g>
<g><path style="opacity:1" fill="#3c76aa" d="M 1335.5,946.5 C 1349.35,946.477 1363.02,947.144 1376.5,948.5C 1362.65,948.523 1348.98,947.856 1335.5,946.5 Z"/></g>
<g><path style="opacity:1" fill="#245f98" d="M 1649.5,961.5 C 1655.07,961.376 1660.4,962.043 1665.5,963.5C 1659.93,963.624 1654.6,962.957 1649.5,961.5 Z"/></g>
<g><path style="opacity:0.997" fill="#2c71b7" d="M 1816.5,1068.5 C 1816.5,1141.83 1816.5,1215.17 1816.5,1288.5C 1795.27,1298.92 1774.27,1309.92 1753.5,1321.5C 1752.13,1321.34 1750.79,1321.51 1749.5,1322C 1700.91,1348.46 1652.24,1374.63 1603.5,1400.5C 1603.5,1296.83 1603.5,1193.17 1603.5,1089.5C 1596.83,1089.5 1590.17,1089.5 1583.5,1089.5C 1606.05,1088.33 1628.72,1086.66 1651.5,1084.5C 1657.71,1084.48 1663.71,1083.81 1669.5,1082.5C 1715,1078.44 1760.34,1074.11 1805.5,1069.5C 1809.14,1068.89 1812.8,1068.55 1816.5,1068.5 Z"/></g>
<g><path style="opacity:1" fill="#235c93" d="M 1669.5,1082.5 C 1663.71,1083.81 1657.71,1084.48 1651.5,1084.5C 1657.25,1082.85 1663.25,1082.18 1669.5,1082.5 Z"/></g>
<g><path style="opacity:1" fill="#1b4c79" d="M 253.5,1090.5 C 239.831,1090.26 226.164,1089.92 212.5,1089.5C 212.5,1193.17 212.5,1296.83 212.5,1400.5C 211.501,1296.67 211.167,1192.67 211.5,1088.5C 225.698,1088.25 239.698,1088.92 253.5,1090.5 Z"/></g>
<g><path style="opacity:1" fill="#1e5a97" d="M 253.5,1090.5 C 375.181,1095.46 496.847,1100.46 618.5,1105.5C 618.5,1234.83 618.5,1364.17 618.5,1493.5C 483.038,1462.87 347.705,1431.87 212.5,1400.5C 212.5,1296.83 212.5,1193.17 212.5,1089.5C 226.164,1089.92 239.831,1090.26 253.5,1090.5 Z"/></g>
<g><path style="opacity:1" fill="#5193ce" d="M 1583.5,1089.5 C 1590.17,1089.5 1596.83,1089.5 1603.5,1089.5C 1603.5,1193.17 1603.5,1296.83 1603.5,1400.5C 1475.85,1429.83 1348.18,1459.16 1220.5,1488.5C 1217.85,1488.41 1215.51,1489.08 1213.5,1490.5C 1208.46,1491.34 1203.46,1492.34 1198.5,1493.5C 1197.83,1493.5 1197.17,1493.5 1196.5,1493.5C 1196.5,1364.5 1196.5,1235.5 1196.5,1106.5C 1196.5,1106.17 1196.5,1105.83 1196.5,1105.5C 1197.83,1105.5 1199.17,1105.5 1200.5,1105.5C 1212.7,1105.68 1224.7,1105.02 1236.5,1103.5C 1256.83,1102.83 1277.17,1102.17 1297.5,1101.5C 1311.35,1101.52 1325.02,1100.86 1338.5,1099.5C 1420.17,1096.17 1501.83,1092.83 1583.5,1089.5 Z"/></g>
<g><path style="opacity:1" fill="#3f7aae" d="M 1338.5,1099.5 C 1325.02,1100.86 1311.35,1101.52 1297.5,1101.5C 1310.98,1100.14 1324.65,1099.48 1338.5,1099.5 Z"/></g>
<g><path style="opacity:1" fill="#3c75a9" d="M 1236.5,1103.5 C 1224.7,1105.02 1212.7,1105.68 1200.5,1105.5C 1212.3,1103.98 1224.3,1103.32 1236.5,1103.5 Z"/></g>
<g><path style="opacity:0.996" fill="#2766a7" d="M 618.5,1105.5 C 811.167,1105.5 1003.83,1105.5 1196.5,1105.5C 1196.5,1105.83 1196.5,1106.17 1196.5,1106.5C 1004.17,1106.5 811.833,1106.5 619.5,1106.5C 619.5,1235.5 619.5,1364.5 619.5,1493.5C 811.833,1493.5 1004.17,1493.5 1196.5,1493.5C 1197.17,1493.5 1197.83,1493.5 1198.5,1493.5C 1005.17,1494.83 811.833,1494.83 618.5,1493.5C 618.5,1364.17 618.5,1234.83 618.5,1105.5 Z"/></g>
<g><path style="opacity:1" fill="#2d72b8" d="M 1196.5,1106.5 C 1196.5,1235.5 1196.5,1364.5 1196.5,1493.5C 1004.17,1493.5 811.833,1493.5 619.5,1493.5C 619.5,1364.5 619.5,1235.5 619.5,1106.5C 811.833,1106.5 1004.17,1106.5 1196.5,1106.5 Z"/></g>
<g><path style="opacity:0.995" fill="#2c71b7" d="M 1816.5,1377.5 C 1816.5,1450.5 1816.5,1523.5 1816.5,1596.5C 1745.72,1678.93 1675.05,1761.27 1604.5,1843.5C 1603.5,1740 1603.17,1636.33 1603.5,1532.5C 1674.4,1481.89 1744.74,1430.55 1814.5,1378.5C 1815.17,1378.17 1815.83,1377.83 1816.5,1377.5 Z"/></g>
<g><path style="opacity:1" fill="#2e6392" d="M 1220.5,1488.5 C 1218.49,1489.92 1216.15,1490.59 1213.5,1490.5C 1215.51,1489.08 1217.85,1488.41 1220.5,1488.5 Z"/></g>
<g><path style="opacity:0.997" fill="#1e5a97" d="M 618.5,1658.5 C 618.5,1788.17 618.5,1917.83 618.5,2047.5C 617.5,2047.5 616.5,2047.5 615.5,2047.5C 480.833,1979.83 346.167,1912.17 211.5,1844.5C 212.333,1740.67 212.833,1636.67 213,1532.5C 348.343,1574 483.51,1616 618.5,1658.5 Z"/></g>
<g><path style="opacity:0.999" fill="#5193ce" d="M 1600.5,1533.5 C 1600.83,1533.5 1601.17,1533.5 1601.5,1533.5C 1601.83,1637.34 1602.83,1741 1604.5,1844.5C 1469.39,1911.89 1334.39,1979.56 1199.5,2047.5C 1198.5,2047.5 1197.5,2047.5 1196.5,2047.5C 1196.5,1917.83 1196.5,1788.17 1196.5,1658.5C 1212.72,1653.12 1229.05,1648.12 1245.5,1643.5C 1250.16,1642.99 1254.49,1641.66 1258.5,1639.5C 1259.39,1638.89 1260.39,1638.56 1261.5,1638.5C 1266.16,1637.99 1270.49,1636.66 1274.5,1634.5C 1275.39,1633.89 1276.39,1633.56 1277.5,1633.5C 1282.16,1632.99 1286.49,1631.66 1290.5,1629.5C 1325.83,1618.5 1361.16,1607.5 1396.5,1596.5C 1399.92,1596.47 1402.92,1595.47 1405.5,1593.5C 1407.92,1593.12 1410.25,1592.46 1412.5,1591.5C 1415.15,1591.59 1417.49,1590.92 1419.5,1589.5C 1475.46,1571.96 1531.46,1554.62 1587.5,1537.5C 1592.16,1536.99 1596.49,1535.66 1600.5,1533.5 Z"/></g>
<g><path style="opacity:1" fill="#4a8cc9" d="M 1601.5,1533.5 C 1601.84,1532.66 1602.51,1532.33 1603.5,1532.5C 1603.17,1636.33 1603.5,1740 1604.5,1843.5C 1604.5,1843.83 1604.5,1844.17 1604.5,1844.5C 1602.83,1741 1601.83,1637.34 1601.5,1533.5 Z"/></g>
<g><path style="opacity:1" fill="#4380b6" d="M 1600.5,1533.5 C 1596.49,1535.66 1592.16,1536.99 1587.5,1537.5C 1591.5,1535.39 1595.84,1534.06 1600.5,1533.5 Z"/></g>
<g><path style="opacity:1" fill="#3d78ac" d="M 1419.5,1589.5 C 1417.49,1590.92 1415.15,1591.59 1412.5,1591.5C 1414.51,1590.08 1416.85,1589.41 1419.5,1589.5 Z"/></g>
<g><path style="opacity:1" fill="#3d78ac" d="M 1405.5,1593.5 C 1402.92,1595.47 1399.92,1596.47 1396.5,1596.5C 1399.22,1594.93 1402.22,1593.93 1405.5,1593.5 Z"/></g>
<g><path style="opacity:1" fill="#417db3" d="M 1290.5,1629.5 C 1286.49,1631.66 1282.16,1632.99 1277.5,1633.5C 1281.5,1631.39 1285.84,1630.06 1290.5,1629.5 Z"/></g>
<g><path style="opacity:1" fill="#427fb4" d="M 1274.5,1634.5 C 1270.49,1636.66 1266.16,1637.99 1261.5,1638.5C 1265.5,1636.39 1269.84,1635.06 1274.5,1634.5 Z"/></g>
<g><path style="opacity:1" fill="#4380b7" d="M 1258.5,1639.5 C 1254.49,1641.66 1250.16,1642.99 1245.5,1643.5C 1249.5,1641.39 1253.84,1640.06 1258.5,1639.5 Z"/></g>
<g><path style="opacity:0.996" fill="#2767aa" d="M 618.5,1658.5 C 618.833,1658.5 619.167,1658.5 619.5,1658.5C 619.5,1787.83 619.5,1917.17 619.5,2046.5C 628.017,2046.17 636.35,2046.51 644.5,2047.5C 635.833,2047.5 627.167,2047.5 618.5,2047.5C 618.5,1917.83 618.5,1788.17 618.5,1658.5 Z"/></g>
<g><path style="opacity:0.999" fill="#2d72b8" d="M 619.5,1658.5 C 811.833,1658.5 1004.17,1658.5 1196.5,1658.5C 1196.5,1788.17 1196.5,1917.83 1196.5,2047.5C 1012.5,2047.5 828.5,2047.5 644.5,2047.5C 636.35,2046.51 628.017,2046.17 619.5,2046.5C 619.5,1917.17 619.5,1787.83 619.5,1658.5 Z"/></g>
</svg>
