<svg xmlns="http://www.w3.org/2000/svg" version="1.1" viewBox="0 0 768 512" style="shape-rendering:geometricPrecision; text-rendering:geometricPrecision; image-rendering:optimizeQuality; fill-rule:evenodd; clip-rule:evenodd" xmlns:xlink="http://www.w3.org/1999/xlink">
<g><path style="opacity:0.984" fill="#2a3238" d="M 371.5,27.5 C 384.054,26.1768 396.054,27.8435 407.5,32.5C 459.232,63.36 510.898,94.1933 562.5,125C 572.62,133.782 579.454,144.615 583,157.5C 583.833,222.836 583.667,288.169 582.5,353.5C 577.936,370.793 567.936,383.96 552.5,393C 504.902,420.469 457.568,448.469 410.5,477C 392.5,485.667 374.5,485.667 356.5,477C 305.768,446.64 255.102,416.307 204.5,386C 194.38,377.218 187.546,366.385 184,353.5C 183.167,288.164 183.333,222.831 184.5,157.5C 189.064,140.207 199.064,127.04 214.5,118C 262.098,90.5308 309.432,62.5308 356.5,34C 361.539,31.5022 366.539,29.3355 371.5,27.5 Z"/></g>
<g><path style="opacity:1" fill="#fefefe" d="M 194.5,164.5 C 195.768,162.095 196.435,159.428 196.5,156.5C 200.279,144.886 207.279,135.72 217.5,129C 265.998,100.585 314.332,71.9186 362.5,43C 377.79,36.5589 392.79,37.2256 407.5,45C 455.668,73.9186 504.002,102.585 552.5,131C 562.292,137.772 568.125,146.939 570,158.5C 566.362,154.174 561.695,152.174 556,152.5C 552.254,152.325 548.754,153.158 545.5,155C 497.334,185.251 449.001,215.251 400.5,245C 389.468,252.03 382.302,261.863 379,274.5C 378.333,334.167 378.333,393.833 379,453.5C 379.581,461.174 383.081,467.007 389.5,471C 379.166,473.672 369.499,472.005 360.5,466C 310.668,436.585 261.001,406.918 211.5,377C 201.909,368.652 196.409,358.152 195,345.5C 194.5,285.168 194.333,224.834 194.5,164.5 Z"/></g>
<g><path style="opacity:1" fill="#999da0" d="M 195.5,156.5 C 195.833,156.5 196.167,156.5 196.5,156.5C 196.435,159.428 195.768,162.095 194.5,164.5C 194.575,161.794 194.908,159.127 195.5,156.5 Z"/></g>
<g><path style="opacity:1" fill="#182127" d="M 195.5,156.5 C 194.908,159.127 194.575,161.794 194.5,164.5C 193.667,224.665 193.167,284.999 193,345.5C 192.333,284.5 192.333,223.5 193,162.5C 193.24,160.148 194.073,158.148 195.5,156.5 Z"/></g>
<g><path style="opacity:1" fill="#f9f9f9" d="M 440.5,277.5 C 441.496,277.414 442.329,277.748 443,278.5C 443.172,282.871 443.672,287.204 444.5,291.5C 448.336,289.687 452.336,289.187 456.5,290C 457.516,290.519 458.182,291.353 458.5,292.5C 457.178,296.79 456.011,301.123 455,305.5C 444.192,305.071 435.859,309.404 430,318.5C 429.333,321.167 429.333,323.833 430,326.5C 430.5,328.333 431.667,329.5 433.5,330C 459.982,330.083 468.149,342.583 458,367.5C 454.829,374.338 450.495,380.338 445,385.5C 444.667,390.5 444.333,395.5 444,400.5C 440.842,403.08 437.508,405.413 434,407.5C 432.886,402.978 432.053,398.311 431.5,393.5C 426.323,395.432 420.989,395.932 415.5,395C 414.978,394.439 414.645,393.772 414.5,393C 415.564,387.721 417.231,382.721 419.5,378C 431.196,379.902 440.029,375.736 446,365.5C 447.432,359.852 446.265,355.018 442.5,351C 421.36,353.528 412.526,344.361 416,323.5C 418.537,313.312 423.871,304.978 432,298.5C 432.333,293.5 432.667,288.5 433,283.5C 435.688,281.636 438.188,279.636 440.5,277.5 Z"/></g>
<g><path style="opacity:1" fill="#407b2d" d="M 516.5,357.5 C 517.209,356.596 518.209,356.263 519.5,356.5C 519.817,360.702 519.483,364.702 518.5,368.5C 519.08,364.351 518.414,360.684 516.5,357.5 Z"/></g>
<g><path style="opacity:1" fill="#4ca625" d="M 516.5,357.5 C 518.414,360.684 519.08,364.351 518.5,368.5C 506.897,375.641 495.231,382.808 483.5,390C 482.207,390.49 480.873,390.657 479.5,390.5C 479.335,386.818 479.501,383.152 480,379.5C 491.945,371.778 504.112,364.445 516.5,357.5 Z"/></g>
</svg>
