<svg xmlns="http://www.w3.org/2000/svg" version="1.1" viewBox="0 0 200 200" style="shape-rendering:geometricPrecision; text-rendering:geometricPrecision; image-rendering:optimizeQuality; fill-rule:evenodd; clip-rule:evenodd" xmlns:xlink="http://www.w3.org/1999/xlink">
<g><path style="opacity:1" fill="#f6ded8" d="M 76.5,63.5 C 75.8333,63.5 75.1667,63.5 74.5,63.5C 74.5,62.1667 74.5,60.8333 74.5,59.5C 72.8333,59.5 71.1667,59.5 69.5,59.5C 69.6495,60.552 69.4828,61.552 69,62.5C 64.4795,58.5543 59.3129,57.2209 53.5,58.5C 53.4142,57.5041 53.7476,56.6708 54.5,56C 50.3747,55.2963 46.8747,53.463 44,50.5C 43.3333,48.5 43.3333,46.5 44,44.5C 46.564,42.9231 49.3974,41.9231 52.5,41.5C 53.3048,37.7084 53.6382,34.0417 53.5,30.5C 55.2581,31.1279 56.7581,32.1279 58,33.5C 58.2492,32.376 58.7492,31.376 59.5,30.5C 66.2626,33.4309 70.7626,38.4309 73,45.5C 74.4917,51.458 75.6584,57.458 76.5,63.5 Z"/></g>
<g><path style="opacity:1" fill="#f8cfdc" d="M 74.5,63.5 C 68.9066,63.8066 63.4066,63.4732 58,62.5C 55.846,63.2301 53.6794,63.8968 51.5,64.5C 51.9707,62.4214 52.6373,60.4214 53.5,58.5C 59.3129,57.2209 64.4795,58.5543 69,62.5C 69.4828,61.552 69.6495,60.552 69.5,59.5C 71.1667,59.5 72.8333,59.5 74.5,59.5C 74.5,60.8333 74.5,62.1667 74.5,63.5 Z"/></g>
<g><path style="opacity:1" fill="#f9bfdf" d="M 74.5,63.5 C 75.1667,63.5 75.8333,63.5 76.5,63.5C 76.8333,68.8333 77.1667,74.1667 77.5,79.5C 77.1667,79.5 76.8333,79.5 76.5,79.5C 77.7411,74.1759 75.9078,70.5092 71,68.5C 65.2096,68.5413 59.7096,68.5413 54.5,68.5C 53.016,69.4669 52.016,70.8002 51.5,72.5C 51.1949,70.0807 51.1949,67.414 51.5,64.5C 53.6794,63.8968 55.846,63.2301 58,62.5C 63.4066,63.4732 68.9066,63.8066 74.5,63.5 Z"/></g>
<g><path style="opacity:1" fill="#f7b5df" d="M 76.5,79.5 C 75.7839,77.4437 75.1172,75.277 74.5,73C 72.236,72.7638 70.0693,72.2638 68,71.5C 66.4126,72.727 65.0793,72.3937 64,70.5C 63,71.1667 62,71.8333 61,72.5C 58.876,71.7728 56.7094,71.1062 54.5,70.5C 53.4471,71.4383 52.7804,72.605 52.5,74C 53.4344,79.7849 53.7677,85.6182 53.5,91.5C 52.6024,85.3337 51.9357,79.0003 51.5,72.5C 52.016,70.8002 53.016,69.4669 54.5,68.5C 59.7096,68.5413 65.2096,68.5413 71,68.5C 75.9078,70.5092 77.7411,74.1759 76.5,79.5 Z"/></g>
<g><path style="opacity:1" fill="#fda6e9" d="M 90.5,82.5 C 88.9507,84.829 88.1173,87.4956 88,90.5C 86.7453,91.2106 85.5786,92.044 84.5,93C 85.5348,94.5069 85.3681,96.0069 84,97.5C 81.4721,102.702 78.1388,107.369 74,111.5C 72.5886,113.65 71.7553,115.984 71.5,118.5C 66.6535,119.259 62.6535,117.926 59.5,114.5C 59.1231,112.742 58.4565,111.075 57.5,109.5C 57.7093,108.914 58.0426,108.414 58.5,108C 56.8727,102.725 55.706,97.2248 55,91.5C 54.501,87.1794 54.3343,82.8461 54.5,78.5C 55.5,78.5 56.5,78.5 57.5,78.5C 57.2746,76.2841 58.1079,74.6174 60,73.5C 61.4299,73.6938 62.9299,73.6938 64.5,73.5C 65.1667,74.1667 65.8333,74.8333 66.5,75.5C 69.1953,73.0571 71.6953,73.3905 74,76.5C 74.2494,79.1768 75.2494,81.5101 77,83.5C 81.1325,82.6898 85.6325,82.3564 90.5,82.5 Z"/></g>
<g><path style="opacity:1" fill="#f6ace3" d="M 76.5,79.5 C 76.8333,79.5 77.1667,79.5 77.5,79.5C 77.8417,80.3382 78.5084,80.6716 79.5,80.5C 83.8333,81.1667 88.1667,81.8333 92.5,82.5C 91.8333,82.5 91.1667,82.5 90.5,82.5C 85.6325,82.3564 81.1325,82.6898 77,83.5C 75.2494,81.5101 74.2494,79.1768 74,76.5C 71.6953,73.3905 69.1953,73.0571 66.5,75.5C 65.8333,74.8333 65.1667,74.1667 64.5,73.5C 62.9299,73.6938 61.4299,73.6938 60,73.5C 58.1079,74.6174 57.2746,76.2841 57.5,78.5C 56.5,78.5 55.5,78.5 54.5,78.5C 54.3343,82.8461 54.501,87.1794 55,91.5C 55.706,97.2248 56.8727,102.725 58.5,108C 58.0426,108.414 57.7093,108.914 57.5,109.5C 58.4565,111.075 59.1231,112.742 59.5,114.5C 57.5905,113.025 56.4238,111.025 56,108.5C 55.8791,102.681 55.0458,97.014 53.5,91.5C 53.7677,85.6182 53.4344,79.7849 52.5,74C 52.7804,72.605 53.4471,71.4383 54.5,70.5C 56.7094,71.1062 58.876,71.7728 61,72.5C 62,71.8333 63,71.1667 64,70.5C 65.0793,72.3937 66.4126,72.727 68,71.5C 70.0693,72.2638 72.236,72.7638 74.5,73C 75.1172,75.277 75.7839,77.4437 76.5,79.5 Z"/></g>
<g><path style="opacity:1" fill="#b9baef" d="M 99.5,80.5 C 100.5,80.5 101.5,80.5 102.5,80.5C 102.561,86.524 100.727,91.8573 97,96.5C 96.2652,98.8713 95.4318,101.205 94.5,103.5C 87.0547,112.427 79.888,121.427 73,130.5C 72.6174,129.944 72.1174,129.611 71.5,129.5C 71.5,128.833 71.5,128.167 71.5,127.5C 74.7326,123.085 78.2326,118.752 82,114.5C 84.2921,107.463 88.4587,101.797 94.5,97.5C 95.7142,93.6844 97.2142,90.0177 99,86.5C 99.4955,84.5273 99.6621,82.5273 99.5,80.5 Z"/></g>
<g><path style="opacity:1" fill="#8daded" d="M 152.5,93.5 C 153.331,97.4761 153.497,101.476 153,105.5C 152.29,106.973 151.124,107.64 149.5,107.5C 149.768,105.901 149.434,104.568 148.5,103.5C 147.071,102.766 146.071,101.599 145.5,100C 146.33,98.5349 146.496,97.0349 146,95.5C 144.436,92.5618 142.27,90.2284 139.5,88.5C 139.5,88.1667 139.5,87.8333 139.5,87.5C 145.704,85.4352 150.037,87.4352 152.5,93.5 Z"/></g>
<g><path style="opacity:1" fill="#62d3f5" d="M 124.5,84.5 C 126.819,84.9925 128.819,85.9925 130.5,87.5C 129.448,87.3505 128.448,87.5172 127.5,88C 128.984,89.5737 130.651,90.907 132.5,92C 131.741,95.6877 132.907,98.8544 136,101.5C 140.2,110.362 140.533,119.362 137,128.5C 136,130.833 134.333,132.5 132,133.5C 131.246,136.684 129.746,139.351 127.5,141.5C 127.279,140.265 126.612,139.265 125.5,138.5C 134.228,130.266 137.061,120.266 134,108.5C 131.526,103.229 129.359,97.8956 127.5,92.5C 123.579,90.2 119.579,87.8667 115.5,85.5C 111.622,86.9282 111.622,88.4282 115.5,90C 114.109,91.02 112.609,91.8534 111,92.5C 110.667,94.1667 110.333,95.8333 110,97.5C 107.667,99.5 105.333,101.5 103,103.5C 98.6088,112.987 92.7754,121.321 85.5,128.5C 85.6641,131.187 85.4974,133.854 85,136.5C 83.3163,137.193 81.8163,137.526 80.5,137.5C 80.1757,139.964 80.009,142.631 80,145.5C 78.3829,144.149 77.2162,142.482 76.5,140.5C 75.2798,141.711 74.1131,141.711 73,140.5C 72.7216,141.416 72.2216,142.082 71.5,142.5C 71.5,141.167 71.5,139.833 71.5,138.5C 71.3284,137.508 71.6618,136.842 72.5,136.5C 77.8757,135.791 80.8757,132.791 81.5,127.5C 82.5,127.5 83.5,127.5 84.5,127.5C 86.299,121.86 89.799,117.527 95,114.5C 95.6667,112.5 96.3333,110.5 97,108.5C 100.636,102.854 104.303,97.1873 108,91.5C 109.128,89.6547 109.628,87.6547 109.5,85.5C 111.429,85.7692 113.095,85.2692 114.5,84C 111.937,83.237 111.937,82.737 114.5,82.5C 117.782,83.4877 121.115,84.1543 124.5,84.5 Z"/></g>
<g><path style="opacity:1" fill="#51d8f5" d="M 127.5,141.5 C 126.833,141.5 126.167,141.5 125.5,141.5C 124.512,140.205 123.512,138.872 122.5,137.5C 121.334,134.17 121.334,130.837 122.5,127.5C 124.356,128.276 125.689,129.609 126.5,131.5C 126.929,127.361 127.596,123.028 128.5,118.5C 126.994,111.654 123.994,105.487 119.5,100C 115.486,99.4945 111.819,100.495 108.5,103C 108.833,103.333 109.167,103.667 109.5,104C 108,106.833 105.833,109 103,110.5C 102.027,112.392 101.36,114.392 101,116.5C 99.3333,117.167 97.6667,117.833 96,118.5C 95.589,122.23 94.2557,125.564 92,128.5C 89.8797,129.605 87.7131,129.605 85.5,128.5C 92.7754,121.321 98.6088,112.987 103,103.5C 105.333,101.5 107.667,99.5 110,97.5C 110.333,95.8333 110.667,94.1667 111,92.5C 112.609,91.8534 114.109,91.02 115.5,90C 111.622,88.4282 111.622,86.9282 115.5,85.5C 119.579,87.8667 123.579,90.2 127.5,92.5C 129.359,97.8956 131.526,103.229 134,108.5C 137.061,120.266 134.228,130.266 125.5,138.5C 126.612,139.265 127.279,140.265 127.5,141.5 Z"/></g>
<g><path style="opacity:1" fill="#4addf4" d="M 122.5,137.5 C 121.883,137.389 121.383,137.056 121,136.5C 120.814,134.1 120.314,131.766 119.5,129.5C 110.347,132.535 101.013,133.201 91.5,131.5C 89.6814,142.79 88.1814,154.123 87,165.5C 86.6258,166.416 86.1258,167.25 85.5,168C 82.4459,168.821 79.4459,168.655 76.5,167.5C 77.0351,165.739 78.0351,164.406 79.5,163.5C 80.4959,163.586 81.3292,163.252 82,162.5C 82.1667,160.5 82.3333,158.5 82.5,156.5C 81.6024,152.152 81.6024,148.152 82.5,144.5C 81.6751,142.199 81.0084,139.865 80.5,137.5C 81.8163,137.526 83.3163,137.193 85,136.5C 85.4974,133.854 85.6641,131.187 85.5,128.5C 87.7131,129.605 89.8797,129.605 92,128.5C 94.2557,125.564 95.589,122.23 96,118.5C 97.6667,117.833 99.3333,117.167 101,116.5C 101.36,114.392 102.027,112.392 103,110.5C 105.833,109 108,106.833 109.5,104C 109.167,103.667 108.833,103.333 108.5,103C 111.819,100.495 115.486,99.4945 119.5,100C 123.994,105.487 126.994,111.654 128.5,118.5C 127.596,123.028 126.929,127.361 126.5,131.5C 125.689,129.609 124.356,128.276 122.5,127.5C 121.334,130.837 121.334,134.17 122.5,137.5 Z"/></g>
<g><path style="opacity:1" fill="#9dc3f0" d="M 102.5,80.5 C 103.833,80.5 105.167,80.5 106.5,80.5C 106.953,81.4584 107.619,82.2917 108.5,83C 105.255,90.31 101.088,97.1433 96,103.5C 95.5172,104.448 95.3505,105.448 95.5,106.5C 93.5545,108.707 91.3878,110.707 89,112.5C 86.2751,115.263 84.2751,118.597 83,122.5C 80.5206,125.069 77.854,127.402 75,129.5C 73.3284,134.611 72.1617,134.611 71.5,129.5C 72.1174,129.611 72.6174,129.944 73,130.5C 79.888,121.427 87.0547,112.427 94.5,103.5C 95.4318,101.205 96.2652,98.8713 97,96.5C 100.727,91.8573 102.561,86.524 102.5,80.5 Z"/></g>
<g><path style="opacity:1" fill="#81cbf1" d="M 106.5,80.5 C 112.854,80.775 118.854,82.1083 124.5,84.5C 121.115,84.1543 117.782,83.4877 114.5,82.5C 111.937,82.737 111.937,83.237 114.5,84C 113.095,85.2692 111.429,85.7692 109.5,85.5C 109.628,87.6547 109.128,89.6547 108,91.5C 104.303,97.1873 100.636,102.854 97,108.5C 96.3333,110.5 95.6667,112.5 95,114.5C 89.799,117.527 86.299,121.86 84.5,127.5C 83.5,127.5 82.5,127.5 81.5,127.5C 80.8757,132.791 77.8757,135.791 72.5,136.5C 79.7709,128.222 87.1042,119.888 94.5,111.5C 95.3094,109.929 95.6427,108.262 95.5,106.5C 95.3505,105.448 95.5172,104.448 96,103.5C 101.088,97.1433 105.255,90.31 108.5,83C 107.619,82.2917 106.953,81.4584 106.5,80.5 Z"/></g>
<g><path style="opacity:1" fill="#efaaea" d="M 90.5,82.5 C 91.1667,82.5 91.8333,82.5 92.5,82.5C 90.1289,95.5747 84.2955,106.908 75,116.5C 74.6667,117.833 74.3333,119.167 74,120.5C 73.2753,121.059 72.4419,121.392 71.5,121.5C 68.8702,120.622 66.2035,119.955 63.5,119.5C 61.457,118.421 60.1237,116.754 59.5,114.5C 62.6535,117.926 66.6535,119.259 71.5,118.5C 71.7553,115.984 72.5886,113.65 74,111.5C 78.1388,107.369 81.4721,102.702 84,97.5C 85.3681,96.0069 85.5348,94.5069 84.5,93C 85.5786,92.044 86.7453,91.2106 88,90.5C 88.1173,87.4956 88.9507,84.829 90.5,82.5 Z"/></g>
<g><path style="opacity:1" fill="#8cc7f0" d="M 95.5,106.5 C 95.6427,108.262 95.3094,109.929 94.5,111.5C 87.1042,119.888 79.7709,128.222 72.5,136.5C 71.6618,136.842 71.3284,137.508 71.5,138.5C 70.5184,135.038 70.185,131.371 70.5,127.5C 70.8333,127.5 71.1667,127.5 71.5,127.5C 71.5,128.167 71.5,128.833 71.5,129.5C 72.1617,134.611 73.3284,134.611 75,129.5C 77.854,127.402 80.5206,125.069 83,122.5C 84.2751,118.597 86.2751,115.263 89,112.5C 91.3878,110.707 93.5545,108.707 95.5,106.5 Z"/></g>
<g><path style="opacity:1" fill="#d7b0ea" d="M 79.5,80.5 C 86.1667,80.5 92.8333,80.5 99.5,80.5C 99.6621,82.5273 99.4955,84.5273 99,86.5C 97.2142,90.0177 95.7142,93.6844 94.5,97.5C 88.4587,101.797 84.2921,107.463 82,114.5C 78.2326,118.752 74.7326,123.085 71.5,127.5C 71.1667,127.5 70.8333,127.5 70.5,127.5C 70.6495,126.448 70.4828,125.448 70,124.5C 67.6744,122.934 65.5078,121.268 63.5,119.5C 66.2035,119.955 68.8702,120.622 71.5,121.5C 72.4419,121.392 73.2753,121.059 74,120.5C 74.3333,119.167 74.6667,117.833 75,116.5C 84.2955,106.908 90.1289,95.5747 92.5,82.5C 88.1667,81.8333 83.8333,81.1667 79.5,80.5 Z"/></g>
<g><path style="opacity:1" fill="#69c6f2" d="M 130.5,87.5 C 133.5,87.5 136.5,87.5 139.5,87.5C 139.5,87.8333 139.5,88.1667 139.5,88.5C 133.678,89.4435 133.178,91.4435 138,94.5C 145.535,110.002 144.535,124.668 135,138.5C 132,139.5 130,141.5 129,144.5C 128.329,143.748 127.496,143.414 126.5,143.5C 126.167,142.833 125.833,142.167 125.5,141.5C 126.167,141.5 126.833,141.5 127.5,141.5C 129.746,139.351 131.246,136.684 132,133.5C 134.333,132.5 136,130.833 137,128.5C 140.533,119.362 140.2,110.362 136,101.5C 132.907,98.8544 131.741,95.6877 132.5,92C 130.651,90.907 128.984,89.5737 127.5,88C 128.448,87.5172 129.448,87.3505 130.5,87.5 Z"/></g>
<g><path style="opacity:1" fill="#78bcf1" d="M 139.5,88.5 C 142.27,90.2284 144.436,92.5618 146,95.5C 146.496,97.0349 146.33,98.5349 145.5,100C 146.071,101.599 147.071,102.766 148.5,103.5C 147.691,104.469 146.691,105.302 145.5,106C 146.687,107.019 147.687,108.186 148.5,109.5C 147.732,113.445 147.232,117.445 147,121.5C 145.984,120.366 145.317,120.699 145,122.5C 144.333,125.167 143.667,127.833 143,130.5C 139.625,135.709 136.458,141.042 133.5,146.5C 132.167,147.5 130.833,148.5 129.5,149.5C 128.817,149.137 128.15,148.804 127.5,148.5C 127.634,146.708 127.301,145.042 126.5,143.5C 127.496,143.414 128.329,143.748 129,144.5C 130,141.5 132,139.5 135,138.5C 144.535,124.668 145.535,110.002 138,94.5C 133.178,91.4435 133.678,89.4435 139.5,88.5 Z"/></g>
<g><path style="opacity:1" fill="#95a4e5" d="M 149.5,127.5 C 150.485,131.634 150.818,135.968 150.5,140.5C 150.5,141.167 150.5,141.833 150.5,142.5C 149.542,142.047 148.708,141.381 148,140.5C 144.874,143.105 143.374,146.438 143.5,150.5C 141.167,148.833 139.167,146.833 137.5,144.5C 139.355,142.967 141.188,141.3 143,139.5C 143.333,137.833 143.667,136.167 144,134.5C 145.576,131.814 147.409,129.48 149.5,127.5 Z"/></g>
<g><path style="opacity:1" fill="#4fd5eb" d="M 80.5,137.5 C 81.0084,139.865 81.6751,142.199 82.5,144.5C 81.6024,148.152 81.6024,152.152 82.5,156.5C 82.3333,158.5 82.1667,160.5 82,162.5C 81.3292,163.252 80.4959,163.586 79.5,163.5C 81.9748,159.344 82.1415,155.011 80,150.5C 78.5872,155.739 76.5872,160.739 74,165.5C 71.6194,166.435 69.1194,166.768 66.5,166.5C 69.4315,161.729 71.4315,156.396 72.5,150.5C 71.7308,147.885 71.3975,145.219 71.5,142.5C 72.2216,142.082 72.7216,141.416 73,140.5C 74.1131,141.711 75.2798,141.711 76.5,140.5C 77.2162,142.482 78.3829,144.149 80,145.5C 80.009,142.631 80.1757,139.964 80.5,137.5 Z"/></g>
<g><path style="opacity:1" fill="#87afe6" d="M 152.5,93.5 C 154.909,98.3179 155.076,103.318 153,108.5C 151.846,109.743 150.512,110.743 149,111.5C 148.324,116.871 148.491,122.204 149.5,127.5C 147.409,129.48 145.576,131.814 144,134.5C 143.667,136.167 143.333,137.833 143,139.5C 141.188,141.3 139.355,142.967 137.5,144.5C 135.805,148.712 133.971,153.045 132,157.5C 128.955,159.719 127.789,162.719 128.5,166.5C 125.833,166.5 123.167,166.5 120.5,166.5C 120.421,165.07 120.754,163.736 121.5,162.5C 125.625,158.804 127.625,154.138 127.5,148.5C 128.15,148.804 128.817,149.137 129.5,149.5C 130.833,148.5 132.167,147.5 133.5,146.5C 136.458,141.042 139.625,135.709 143,130.5C 143.667,127.833 144.333,125.167 145,122.5C 145.317,120.699 145.984,120.366 147,121.5C 147.232,117.445 147.732,113.445 148.5,109.5C 147.687,108.186 146.687,107.019 145.5,106C 146.691,105.302 147.691,104.469 148.5,103.5C 149.434,104.568 149.768,105.901 149.5,107.5C 151.124,107.64 152.29,106.973 153,105.5C 153.497,101.476 153.331,97.4761 152.5,93.5 Z"/></g>
<g><path style="opacity:1" fill="#ad95e5" d="M 150.5,142.5 C 150.182,149.346 149.515,156.013 148.5,162.5C 148.665,159.15 148.498,155.817 148,152.5C 147.282,151.549 146.449,151.383 145.5,152C 144.533,156.401 144.2,160.901 144.5,165.5C 145.5,165.5 146.5,165.5 147.5,165.5C 146.122,166.234 144.622,166.901 143,167.5C 142.805,166.181 142.972,164.847 143.5,163.5C 143.5,159.167 143.5,154.833 143.5,150.5C 143.374,146.438 144.874,143.105 148,140.5C 148.708,141.381 149.542,142.047 150.5,142.5 Z"/></g>
<g><path style="opacity:1" fill="#b890ec" d="M 148.5,162.5 C 148.737,163.791 148.404,164.791 147.5,165.5C 146.5,165.5 145.5,165.5 144.5,165.5C 144.2,160.901 144.533,156.401 145.5,152C 146.449,151.383 147.282,151.549 148,152.5C 148.498,155.817 148.665,159.15 148.5,162.5 Z"/></g>
<g><path style="opacity:0.325" fill="#aa95cc" d="M 150.5,140.5 C 151.38,142.137 152.046,143.97 152.5,146C 150.981,151.723 150.147,157.556 150,163.5C 149.767,167.23 147.767,168.896 144,168.5C 138.525,167.989 138.358,166.323 143.5,163.5C 142.972,164.847 142.805,166.181 143,167.5C 144.622,166.901 146.122,166.234 147.5,165.5C 148.404,164.791 148.737,163.791 148.5,162.5C 149.515,156.013 150.182,149.346 150.5,142.5C 150.5,141.833 150.5,141.167 150.5,140.5 Z"/></g>
</svg>
