
<svg xmlns="http://www.w3.org/2000/svg" version="1.1" viewBox="0 0 592 644" style="shape-rendering:geometricPrecision; text-rendering:geometricPrecision; image-rendering:optimizeQuality; fill-rule:evenodd; clip-rule:evenodd" xmlns:xlink="http://www.w3.org/1999/xlink">
<g><path style="opacity:0.987" fill="#144e5a" d="M 280.5,42.5 C 295.17,42.3334 309.837,42.5001 324.5,43C 345.367,44.0099 365.033,49.3432 383.5,59C 389.431,63.2614 394.765,68.2614 399.5,74C 407.668,91.9865 412.334,110.82 413.5,130.5C 416.648,169.493 411.814,207.493 399,244.5C 396.422,249.324 393.588,253.99 390.5,258.5C 384.736,264.583 377.736,268.583 369.5,270.5C 363.241,272.183 356.908,273.517 350.5,274.5C 339.333,274.833 328.167,275.167 317,275.5C 290.174,274.284 263.34,273.784 236.5,274C 228.575,275.415 220.575,276.915 212.5,278.5C 200.677,281.997 190.677,288.33 182.5,297.5C 172.58,314.144 166.247,332.144 163.5,351.5C 162.186,364.872 160.52,378.206 158.5,391.5C 157.738,392.628 157.071,393.795 156.5,395C 133.255,394.863 111.922,388.363 92.5,375.5C 89.794,373.129 87.4606,370.463 85.5,367.5C 84.3112,366.571 82.9778,366.238 81.5,366.5C 81.719,365.325 81.3857,364.325 80.5,363.5C 71.9634,354.804 64.7968,345.137 59,334.5C 51.8597,317.343 46.8597,299.677 44,281.5C 41.1279,250.391 46.9612,221.058 61.5,193.5C 66.5112,187.823 71.5112,182.157 76.5,176.5C 84.847,169.826 94.1803,164.993 104.5,162C 176.162,160.836 247.829,160.336 319.5,160.5C 319.5,157.5 319.5,154.5 319.5,151.5C 273.167,151.5 226.833,151.5 180.5,151.5C 180.167,131.156 180.5,110.822 181.5,90.5C 182.042,84.304 183.375,78.304 185.5,72.5C 190.411,68.3651 195.744,64.6984 201.5,61.5C 226.952,51.1418 253.285,44.8085 280.5,42.5 Z M 228.5,74.5 C 240.474,74.817 249.807,79.817 256.5,89.5C 258.472,94.0555 260.139,98.7222 261.5,103.5C 259.215,112.074 254.882,119.407 248.5,125.5C 236.97,132.629 225.97,131.962 215.5,123.5C 207.286,116.034 204.452,106.701 207,95.5C 207.889,92.7213 209.056,90.0546 210.5,87.5C 213.797,85.2046 216.797,82.538 219.5,79.5C 222.693,77.8046 225.693,76.1379 228.5,74.5 Z"/></g>
<g><path style="opacity:0.987" fill="#144e5a" d="M 429.5,165.5 C 484.123,166.17 521.123,191.837 540.5,242.5C 547.948,265.173 550.448,288.506 548,312.5C 546.038,334.221 539.205,354.221 527.5,372.5C 520.442,380.393 512.609,387.393 504,393.5C 499.583,395.139 495.083,396.473 490.5,397.5C 416.851,399.801 343.184,400.801 269.5,400.5C 269.5,403.167 269.5,405.833 269.5,408.5C 315.833,408.5 362.167,408.5 408.5,408.5C 408.833,430.177 408.5,451.844 407.5,473.5C 407.672,483.662 403.339,491.162 394.5,496C 380.833,502.634 366.667,507.801 352,511.5C 310.809,520.669 269.643,520.669 228.5,511.5C 215.404,507.125 203.737,500.458 193.5,491.5C 190.88,486.862 188.213,482.195 185.5,477.5C 179.409,460.25 176.242,442.584 176,424.5C 174.122,395.049 176.622,366.049 183.5,337.5C 186.753,329.286 189.587,320.953 192,312.5C 194.473,308.876 197.307,305.542 200.5,302.5C 201.429,301.311 201.762,299.978 201.5,298.5C 203.958,298.773 205.625,297.773 206.5,295.5C 216.765,291.186 227.432,288.186 238.5,286.5C 276.841,286.056 315.175,286.056 353.5,286.5C 367.122,284.846 380.122,281.179 392.5,275.5C 397.783,270.891 403.116,266.225 408.5,261.5C 417.728,245.042 423.395,227.375 425.5,208.5C 428.153,194.287 429.486,179.953 429.5,165.5 Z M 348.5,424.5 C 365.995,426.476 376.329,436.142 379.5,453.5C 378.428,458.383 376.761,463.05 374.5,467.5C 371.527,469.806 368.86,472.473 366.5,475.5C 355.083,482.491 344.083,481.824 333.5,473.5C 323.543,463.021 321.877,451.354 328.5,438.5C 331.5,435.5 334.5,432.5 337.5,429.5C 341.305,427.668 344.971,426.002 348.5,424.5 Z"/></g>
<g><path style="opacity:0.903" fill="#319797" d="M 197.5,555.5 C 201.5,555.5 205.5,555.5 209.5,555.5C 210.201,557.908 211.201,560.242 212.5,562.5C 220.175,574.521 227.841,586.521 235.5,598.5C 236.499,584.182 236.833,569.849 236.5,555.5C 239.5,555.5 242.5,555.5 245.5,555.5C 245.5,576.833 245.5,598.167 245.5,619.5C 241.566,619.979 237.899,619.312 234.5,617.5C 225.067,603.482 216.067,589.148 207.5,574.5C 206.501,589.485 206.167,604.485 206.5,619.5C 203.5,619.5 200.5,619.5 197.5,619.5C 197.5,598.167 197.5,576.833 197.5,555.5 Z"/></g>
<g><path style="opacity:0.964" fill="#329898" d="M 257.5,555.5 C 260.833,555.5 264.167,555.5 267.5,555.5C 267.5,574.167 267.5,592.833 267.5,611.5C 276.833,611.5 286.167,611.5 295.5,611.5C 295.5,614.167 295.5,616.833 295.5,619.5C 282.833,619.5 270.167,619.5 257.5,619.5C 257.5,598.167 257.5,576.833 257.5,555.5 Z"/></g>
<g><path style="opacity:0.948" fill="#329898" d="M 285.5,555.5 C 302.167,555.5 318.833,555.5 335.5,555.5C 335.5,558.167 335.5,560.833 335.5,563.5C 329.167,563.5 322.833,563.5 316.5,563.5C 316.5,582.167 316.5,600.833 316.5,619.5C 313.167,619.5 309.833,619.5 306.5,619.5C 306.5,600.833 306.5,582.167 306.5,563.5C 299.5,563.5 292.5,563.5 285.5,563.5C 285.5,560.833 285.5,558.167 285.5,555.5 Z"/></g>
<g><path style="opacity:0.881" fill="#309696" d="M 339.5,555.5 C 343.167,555.5 346.833,555.5 350.5,555.5C 350.334,564.839 350.5,574.173 351,583.5C 355.502,575.818 361.002,568.818 367.5,562.5C 368.039,559.834 369.372,557.667 371.5,556C 376.202,555.172 380.869,555.338 385.5,556.5C 378.367,565.549 371.034,574.383 363.5,583C 369.765,593.535 376.765,603.535 384.5,613C 385.769,615.084 386.769,617.251 387.5,619.5C 382.786,619.827 378.12,619.493 373.5,618.5C 372.359,617.575 372.359,616.741 373.5,616C 372.069,615.535 370.903,614.701 370,613.5C 365.877,605.733 361.044,598.399 355.5,591.5C 354.167,592.833 352.833,594.167 351.5,595.5C 350.502,603.472 350.169,611.472 350.5,619.5C 346.833,619.5 343.167,619.5 339.5,619.5C 339.5,598.167 339.5,576.833 339.5,555.5 Z"/></g>
</svg>
