
<svg xmlns="http://www.w3.org/2000/svg" version="1.1" viewBox="0 0 283 283" style="shape-rendering:geometricPrecision; text-rendering:geometricPrecision; image-rendering:optimizeQuality; fill-rule:evenodd; clip-rule:evenodd" xmlns:xlink="http://www.w3.org/1999/xlink">
<g><path style="opacity:0.725" fill="#969db1" d="M 255.5,11.5 C 255.833,12.1667 256.167,12.8333 256.5,13.5C 180.874,12.5061 105.208,12.1728 29.5,12.5C 29.5,12.1667 29.5,11.8333 29.5,11.5C 104.791,10.1723 180.125,10.1723 255.5,11.5 Z"/></g>
<g><path style="opacity:0.62" fill="#a9adb9" d="M 29.5,11.5 C 29.5,11.8333 29.5,12.1667 29.5,12.5C 26.5739,13.4608 23.5739,14.1274 20.5,14.5C 23.0836,12.5275 26.0836,11.5275 29.5,11.5 Z"/></g>
<g><path style="opacity:1" fill="#3f4f75" d="M 29.5,12.5 C 105.208,12.1728 180.874,12.5061 256.5,13.5C 260.089,14.298 263.422,15.6313 266.5,17.5C 267.5,17.8333 268.167,18.5 268.5,19.5C 268.738,21.4044 269.738,22.7377 271.5,23.5C 271.678,26.2165 272.178,28.8832 273,31.5C 273.5,106.166 273.667,180.833 273.5,255.5C 273.737,256.791 273.404,257.791 272.5,258.5C 271.094,258.973 270.427,259.973 270.5,261.5C 266.058,266.097 260.724,269.263 254.5,271C 180.167,271.5 105.834,271.667 31.5,271.5C 24.8067,270.321 19.1401,267.321 14.5,262.5C 11.8762,258.915 10.0428,254.915 9,250.5C 8.33333,177.833 8.33333,105.167 9,32.5C 9.77362,28.9513 11.107,25.618 13,22.5C 15.705,19.9638 18.205,17.2971 20.5,14.5C 23.5739,14.1274 26.5739,13.4608 29.5,12.5 Z"/></g>
<g><path style="opacity:0.302" fill="#b7bcc6" d="M 255.5,11.5 C 259.945,12.2197 263.612,14.2197 266.5,17.5C 263.422,15.6313 260.089,14.298 256.5,13.5C 256.167,12.8333 255.833,12.1667 255.5,11.5 Z"/></g>
<g><path style="opacity:0.667" fill="#aeb2c0" d="M 268.5,19.5 C 270.262,20.2623 271.262,21.5956 271.5,23.5C 269.738,22.7377 268.738,21.4044 268.5,19.5 Z"/></g>
<g><path style="opacity:0.086" fill="#e7e7e9" d="M 20.5,14.5 C 18.205,17.2971 15.705,19.9638 13,22.5C 11.107,25.618 9.77362,28.9513 9,32.5C 8.33333,105.167 8.33333,177.833 9,250.5C 10.0428,254.915 11.8762,258.915 14.5,262.5C 14.5,263.167 14.5,263.833 14.5,264.5C 11.0577,261.288 8.89101,257.288 8,252.5C 7.33333,178.833 7.33333,105.167 8,31.5C 9.35072,23.6642 13.5174,17.9975 20.5,14.5 Z"/></g>
<g><path style="opacity:0.914" fill="#6f7995" d="M 271.5,23.5 C 273.446,25.734 274.613,28.4006 275,31.5C 275.667,105.167 275.667,178.833 275,252.5C 274.768,253.737 274.268,254.737 273.5,255.5C 273.667,180.833 273.5,106.166 273,31.5C 272.178,28.8832 271.678,26.2165 271.5,23.5 Z"/></g>
<g><path style="opacity:1" fill="#7cc8ba" d="M 120.5,86.5 C 118.097,86.552 115.764,86.2186 113.5,85.5C 110.119,82.7218 108.453,79.0552 108.5,74.5C 109.214,70.7438 110.214,67.0771 111.5,63.5C 120.089,60.2658 126.589,62.5991 131,70.5C 132.53,77.267 130.364,82.4337 124.5,86C 123.207,86.49 121.873,86.6567 120.5,86.5 Z"/></g>
<g><path style="opacity:1" fill="#7cc8ba" d="M 212.5,62.5 C 222.224,63.9025 226.057,69.5692 224,79.5C 221.19,84.7582 216.69,87.0915 210.5,86.5C 204.628,84.7919 201.628,80.7919 201.5,74.5C 202.334,71.1237 203.501,67.7903 205,64.5C 207.607,63.8767 210.107,63.21 212.5,62.5 Z"/></g>
<g><path style="opacity:1" fill="#7dc9ba" d="M 65.5,64.5 C 72.5821,63.1249 78.0821,65.4582 82,71.5C 81.8208,84.6941 75.3208,89.1941 62.5,85C 59.4547,82.4162 57.9547,79.2496 58,75.5C 60.0038,71.4916 62.5038,67.8249 65.5,64.5 Z"/></g>
<g><path style="opacity:1" fill="#7dc9ba" d="M 161.5,64.5 C 168.582,63.1249 174.082,65.4582 178,71.5C 178.483,83.6986 172.649,88.5319 160.5,86C 155.268,83.3674 153.435,79.2008 155,73.5C 156.686,70.117 158.853,67.117 161.5,64.5 Z"/></g>
<g><path style="opacity:1" fill="#53778c" d="M 113.5,85.5 C 115.764,86.2186 118.097,86.552 120.5,86.5C 119.726,87.1471 118.726,87.4805 117.5,87.5C 115.645,87.6598 114.312,86.9931 113.5,85.5 Z"/></g>
<g><path style="opacity:1" fill="#f9fafb" d="M 123.5,223.5 C 120.098,223.658 116.764,223.324 113.5,222.5C 110.515,220.513 108.515,217.846 107.5,214.5C 107.181,180.79 107.514,147.123 108.5,113.5C 111.489,107.011 116.489,104.844 123.5,107C 127.237,108.281 129.737,110.781 131,114.5C 131.667,148.167 131.667,181.833 131,215.5C 129.676,219.323 127.176,221.989 123.5,223.5 Z"/></g>
<g><path style="opacity:1" fill="#fdfdfd" d="M 218.5,222.5 C 215.236,223.324 211.902,223.658 208.5,223.5C 205.448,222.12 203.282,219.786 202,216.5C 201.333,181.833 201.333,147.167 202,112.5C 207.043,105.897 213.209,104.731 220.5,109C 222.049,110.214 223.215,111.714 224,113.5C 224.667,147.5 224.667,181.5 224,215.5C 223.093,218.572 221.26,220.905 218.5,222.5 Z"/></g>
<g><path style="opacity:1" fill="#7dc9ba" d="M 78.5,127.5 C 73.6298,129.7 68.6298,130.033 63.5,128.5C 59.3103,126.453 57.477,123.12 58,118.5C 63.9565,105.337 71.9565,104.004 82,114.5C 83.1663,119.49 81.9996,123.823 78.5,127.5 Z"/></g>
<g><path style="opacity:1" fill="#7dc9ba" d="M 161.5,107.5 C 168.34,106.67 173.84,109.003 178,114.5C 178.443,127.37 172.276,132.203 159.5,129C 154.395,125.147 153.229,120.314 156,114.5C 157.666,112.004 159.5,109.671 161.5,107.5 Z"/></g>
<g><path style="opacity:1" fill="#586687" d="M 108.5,113.5 C 107.514,147.123 107.181,180.79 107.5,214.5C 106.336,181.336 106.169,148.003 107,114.5C 107.383,113.944 107.883,113.611 108.5,113.5 Z"/></g>
<g><path style="opacity:1" fill="#567d8f" d="M 78.5,127.5 C 76.2414,129.755 73.408,130.755 70,130.5C 67.4563,130.664 65.2897,129.997 63.5,128.5C 68.6298,130.033 73.6298,129.7 78.5,127.5 Z"/></g>
<g><path style="opacity:1" fill="#fafafb" d="M 67.5,153.5 C 74.6559,152.166 80.1559,154.5 84,160.5C 84.6667,178.833 84.6667,197.167 84,215.5C 80.3454,222.738 74.5121,225.238 66.5,223C 63.8358,220.331 62.0024,217.164 61,213.5C 60.3333,196.5 60.3333,179.5 61,162.5C 62.2105,158.721 64.3772,155.721 67.5,153.5 Z"/></g>
<g><path style="opacity:1" fill="#fdfdfd" d="M 171.5,222.5 C 167.833,223.833 164.167,223.833 160.5,222.5C 157.74,220.905 155.907,218.572 155,215.5C 154.333,197.167 154.333,178.833 155,160.5C 159.035,153.393 164.869,151.56 172.5,155C 174,156.5 175.5,158 177,159.5C 177.667,178.5 177.667,197.5 177,216.5C 175.669,218.996 173.836,220.996 171.5,222.5 Z"/></g>
<g><path style="opacity:1" fill="#848ea7" d="M 113.5,222.5 C 116.764,223.324 120.098,223.658 123.5,223.5C 120.696,224.638 117.696,224.805 114.5,224C 113.944,223.617 113.611,223.117 113.5,222.5 Z"/></g>
<g><path style="opacity:1" fill="#8b94ab" d="M 160.5,222.5 C 164.167,223.833 167.833,223.833 171.5,222.5C 171.389,223.117 171.056,223.617 170.5,224C 167.5,224.667 164.5,224.667 161.5,224C 160.944,223.617 160.611,223.117 160.5,222.5 Z"/></g>
<g><path style="opacity:1" fill="#79839e" d="M 218.5,222.5 C 217.306,223.777 215.64,224.444 213.5,224.5C 211.631,224.493 209.964,224.16 208.5,223.5C 211.902,223.658 215.236,223.324 218.5,222.5 Z"/></g>
<g><path style="opacity:0.153" fill="#ced0d7" d="M 272.5,258.5 C 272.573,260.027 271.906,261.027 270.5,261.5C 270.427,259.973 271.094,258.973 272.5,258.5 Z"/></g>
<g><path style="opacity:0.22" fill="#c8cbd2" d="M 14.5,262.5 C 19.1401,267.321 24.8067,270.321 31.5,271.5C 31.5,271.833 31.5,272.167 31.5,272.5C 24.6275,272.229 18.9608,269.562 14.5,264.5C 14.5,263.833 14.5,263.167 14.5,262.5 Z"/></g>
<g><path style="opacity:0.369" fill="#adafb4" d="M 270.5,261.5 C 267.588,267.144 262.921,270.644 256.5,272C 181.501,272.5 106.501,272.667 31.5,272.5C 31.5,272.167 31.5,271.833 31.5,271.5C 105.834,271.667 180.167,271.5 254.5,271C 260.724,269.263 266.058,266.097 270.5,261.5 Z"/></g>
</svg>
