
<svg xmlns="http://www.w3.org/2000/svg" version="1.1" viewBox="0 0 300 300" style="shape-rendering:geometricPrecision; text-rendering:geometricPrecision; image-rendering:optimizeQuality; fill-rule:evenodd; clip-rule:evenodd" xmlns:xlink="http://www.w3.org/1999/xlink">
<g><path style="opacity:1" fill="#8921b4" d="M 131.5,-0.5 C 143.5,-0.5 155.5,-0.5 167.5,-0.5C 230.97,10.348 273.137,46.348 294,107.5C 296.179,116.237 298.012,124.903 299.5,133.5C 299.5,144.167 299.5,154.833 299.5,165.5C 292.036,216.788 266.036,255.621 221.5,282C 204.388,290.983 186.388,296.816 167.5,299.5C 155.167,299.5 142.833,299.5 130.5,299.5C 56.7083,285.375 13.0416,241.375 -0.5,167.5C -0.5,155.5 -0.5,143.5 -0.5,131.5C 10.0296,68.1324 45.6962,25.9657 106.5,5C 114.874,2.69463 123.207,0.861293 131.5,-0.5 Z"/></g>
<g><path style="opacity:1" fill="#fcfbfc" d="M 187.5,116.5 C 188.043,116.44 188.376,116.107 188.5,115.5C 181.866,114.503 175.2,114.17 168.5,114.5C 165.167,114.5 161.833,114.5 158.5,114.5C 158.5,110.167 158.5,105.833 158.5,101.5C 185.504,101.398 212.504,101.065 239.5,100.5C 239.5,105.5 239.5,110.5 239.5,115.5C 230.121,115.87 220.788,116.703 211.5,118C 194,133.5 176.5,149 159,164.5C 158.234,177.159 157.734,189.825 157.5,202.5C 167.857,202.328 178.19,202.661 188.5,203.5C 188.5,207.167 188.5,210.833 188.5,214.5C 156.5,214.5 124.5,214.5 92.5,214.5C 92.2065,210.563 92.5399,206.73 93.5,203C 103.491,202.251 113.491,201.751 123.5,201.5C 123.667,189.495 123.5,177.495 123,165.5C 105.356,143.688 87.5222,122.021 69.5,100.5C 59.5741,98.8384 49.5741,97.8384 39.5,97.5C 39.5,93.1667 39.5,88.8333 39.5,84.5C 71.8402,84.1668 104.174,84.5001 136.5,85.5C 135.567,89.4295 135.234,93.4295 135.5,97.5C 126.782,97.5039 118.116,98.1706 109.5,99.5C 122.126,116.424 135.459,132.757 149.5,148.5C 162.198,137.825 174.864,127.159 187.5,116.5 Z"/></g>
<g><path style="opacity:1" fill="#e0c6eb" d="M 168.5,114.5 C 175.2,114.17 181.866,114.503 188.5,115.5C 188.376,116.107 188.043,116.44 187.5,116.5C 181.167,115.833 174.833,115.167 168.5,114.5 Z"/></g>
<g><path style="opacity:1" fill="#fcfbfc" d="M 250.5,129.5 C 253.167,130.167 255.833,130.833 258.5,131.5C 254.338,148.815 250.171,166.148 246,183.5C 245.612,184.428 244.945,185.095 244,185.5C 241.23,184.652 238.397,184.319 235.5,184.5C 235.5,166.167 235.5,147.833 235.5,129.5C 240.5,129.5 245.5,129.5 250.5,129.5 Z"/></g>
<g><path style="opacity:1" fill="#c38ed8" d="M 250.5,129.5 C 253.572,129.183 256.572,129.516 259.5,130.5C 259.376,131.107 259.043,131.44 258.5,131.5C 255.833,130.833 253.167,130.167 250.5,129.5 Z"/></g>
<g><path style="opacity:1" fill="#faf7fb" d="M 246.5,193.5 C 246.5,196.833 246.5,200.167 246.5,203.5C 242.167,203.5 237.833,203.5 233.5,203.5C 233.276,199.821 232.942,196.154 232.5,192.5C 237.363,192.181 242.03,192.514 246.5,193.5 Z"/></g>
<g><path style="opacity:1" fill="#dabbe7" d="M 246.5,193.5 C 247.482,196.962 247.815,200.629 247.5,204.5C 242.637,204.819 237.97,204.486 233.5,203.5C 237.833,203.5 242.167,203.5 246.5,203.5C 246.5,200.167 246.5,196.833 246.5,193.5 Z"/></g>
</svg>
